<svg width="260" height="60" viewBox="0 0 260 60" fill="none" xmlns="http://www.w3.org/2000/svg">
<path d="M97.4188 20.0757C97.7068 21.0597 98.0188 22.1757 98.3548 23.4237C98.7148 24.6477 99.0868 25.9197 99.4708 27.2397C99.8788 28.5597 100.287 29.8797 100.695 31.1997C101.103 32.5197 101.499 33.7437 101.883 34.8717C102.195 33.6477 102.507 32.3157 102.819 30.8757C103.155 29.4357 103.467 27.9477 103.755 26.4117C104.043 24.8757 104.319 23.3517 104.583 21.8397C104.871 20.3037 105.135 18.8277 105.375 17.4117H111.207C110.367 21.5877 109.395 25.8237 108.291 30.1197C107.211 34.4157 106.035 38.4957 104.763 42.3597H99.6148C98.7748 40.0557 97.9588 37.6437 97.1668 35.1237C96.3748 32.5797 95.5948 30.0357 94.8268 27.4917C94.0588 30.0357 93.2908 32.5797 92.5228 35.1237C91.7548 37.6437 90.9508 40.0557 90.1108 42.3597H84.9628C83.6908 38.4957 82.5028 34.4157 81.3988 30.1197C80.3188 25.8237 79.3588 21.5877 78.5188 17.4117H84.6028C84.8428 18.8277 85.1068 20.3037 85.3948 21.8397C85.6828 23.3517 85.9828 24.8757 86.2948 26.4117C86.6068 27.9477 86.9188 29.4357 87.2308 30.8757C87.5668 32.3157 87.9028 33.6477 88.2388 34.8717C88.6708 33.6957 89.0908 32.4477 89.4988 31.1277C89.9068 29.8077 90.3028 28.4877 90.6868 27.1677C91.0708 25.8477 91.4188 24.5757 91.7308 23.3517C92.0668 22.1277 92.3668 21.0357 92.6308 20.0757H97.4188ZM114.456 42.3597V15.2877L119.82 14.4237V23.4957C120.18 23.3757 120.636 23.2677 121.188 23.1717C121.764 23.0517 122.316 22.9917 122.844 22.9917C124.38 22.9917 125.652 23.2077 126.66 23.6397C127.692 24.0477 128.508 24.6357 129.108 25.4037C129.732 26.1717 130.164 27.0837 130.404 28.1397C130.668 29.1957 130.8 30.3717 130.8 31.6677V42.3597H125.436V32.3157C125.436 30.5877 125.208 29.3637 124.752 28.6437C124.32 27.9237 123.504 27.5637 122.304 27.5637C121.824 27.5637 121.368 27.6117 120.936 27.7077C120.528 27.7797 120.156 27.8637 119.82 27.9597V42.3597H114.456ZM141.019 42.3597H135.655V23.4237H141.019V42.3597ZM141.523 17.9517C141.523 18.9357 141.199 19.7157 140.551 20.2917C139.927 20.8437 139.183 21.1197 138.319 21.1197C137.455 21.1197 136.699 20.8437 136.051 20.2917C135.427 19.7157 135.115 18.9357 135.115 17.9517C135.115 16.9677 135.427 16.1997 136.051 15.6477C136.699 15.0717 137.455 14.7837 138.319 14.7837C139.183 14.7837 139.927 15.0717 140.551 15.6477C141.199 16.1997 141.523 16.9677 141.523 17.9517ZM145.881 18.7077L151.245 17.8437V23.4237H157.689V27.8877H151.245V34.5477C151.245 35.6757 151.437 36.5757 151.821 37.2477C152.229 37.9197 153.033 38.2557 154.233 38.2557C154.809 38.2557 155.397 38.2077 155.997 38.1117C156.621 37.9917 157.185 37.8357 157.689 37.6437L158.445 41.8197C157.797 42.0837 157.077 42.3117 156.285 42.5037C155.493 42.6957 154.521 42.7917 153.369 42.7917C151.905 42.7917 150.693 42.5997 149.733 42.2157C148.773 41.8077 148.005 41.2557 147.429 40.5597C146.853 39.8397 146.445 38.9757 146.205 37.9677C145.989 36.9597 145.881 35.8437 145.881 34.6197V18.7077ZM160.454 33.0357C160.454 31.3557 160.706 29.8917 161.21 28.6437C161.738 27.3717 162.422 26.3157 163.262 25.4757C164.102 24.6357 165.062 23.9997 166.142 23.5677C167.246 23.1357 168.374 22.9197 169.526 22.9197C172.214 22.9197 174.338 23.7477 175.898 25.4037C177.458 27.0357 178.238 29.4477 178.238 32.6397C178.238 32.9517 178.226 33.2997 178.202 33.6837C178.178 34.0437 178.154 34.3677 178.13 34.6557H165.962C166.082 35.7597 166.598 36.6357 167.51 37.2837C168.422 37.9317 169.646 38.2557 171.182 38.2557C172.166 38.2557 173.126 38.1717 174.062 38.0037C175.022 37.8117 175.802 37.5837 176.402 37.3197L177.122 41.6757C176.834 41.8197 176.45 41.9637 175.97 42.1077C175.49 42.2517 174.95 42.3717 174.35 42.4677C173.774 42.5877 173.15 42.6837 172.478 42.7557C171.806 42.8277 171.134 42.8637 170.462 42.8637C168.758 42.8637 167.27 42.6117 165.998 42.1077C164.75 41.6037 163.706 40.9197 162.866 40.0557C162.05 39.1677 161.438 38.1237 161.03 36.9237C160.646 35.7237 160.454 34.4277 160.454 33.0357ZM173.054 30.9837C173.03 30.5277 172.946 30.0837 172.802 29.6517C172.682 29.2197 172.478 28.8357 172.19 28.4997C171.926 28.1637 171.578 27.8877 171.146 27.6717C170.738 27.4557 170.222 27.3477 169.598 27.3477C168.998 27.3477 168.482 27.4557 168.05 27.6717C167.618 27.8637 167.258 28.1277 166.97 28.4637C166.682 28.7997 166.454 29.1957 166.286 29.6517C166.142 30.0837 166.034 30.5277 165.962 30.9837H173.054ZM200.089 32.8557C200.089 34.3437 199.873 35.7117 199.441 36.9597C199.009 38.1837 198.385 39.2397 197.569 40.1277C196.753 40.9917 195.769 41.6637 194.617 42.1437C193.489 42.6237 192.217 42.8637 190.801 42.8637C189.409 42.8637 188.137 42.6237 186.985 42.1437C185.857 41.6637 184.885 40.9917 184.069 40.1277C183.253 39.2397 182.617 38.1837 182.161 36.9597C181.705 35.7117 181.477 34.3437 181.477 32.8557C181.477 31.3677 181.705 30.0117 182.161 28.7877C182.641 27.5637 183.289 26.5197 184.105 25.6557C184.945 24.7917 185.929 24.1197 187.057 23.6397C188.209 23.1597 189.457 22.9197 190.801 22.9197C192.169 22.9197 193.417 23.1597 194.545 23.6397C195.697 24.1197 196.681 24.7917 197.497 25.6557C198.313 26.5197 198.949 27.5637 199.405 28.7877C199.861 30.0117 200.089 31.3677 200.089 32.8557ZM194.617 32.8557C194.617 31.1997 194.281 29.9037 193.609 28.9677C192.961 28.0077 192.025 27.5277 190.801 27.5277C189.577 27.5277 188.629 28.0077 187.957 28.9677C187.285 29.9037 186.949 31.1997 186.949 32.8557C186.949 34.5117 187.285 35.8317 187.957 36.8157C188.629 37.7757 189.577 38.2557 190.801 38.2557C192.025 38.2557 192.961 37.7757 193.609 36.8157C194.281 35.8317 194.617 34.5117 194.617 32.8557ZM220.409 41.7117C219.497 41.9757 218.321 42.2157 216.881 42.4317C215.441 42.6717 213.929 42.7917 212.345 42.7917C210.737 42.7917 209.393 42.5757 208.313 42.1437C207.257 41.7117 206.417 41.1117 205.793 40.3437C205.169 39.5517 204.725 38.6157 204.461 37.5357C204.197 36.4557 204.065 35.2677 204.065 33.9717V23.4237H209.429V33.3237C209.429 35.0517 209.657 36.2997 210.113 37.0677C210.569 37.8357 211.421 38.2197 212.669 38.2197C213.053 38.2197 213.461 38.2077 213.893 38.1837C214.325 38.1357 214.709 38.0877 215.045 38.0397V23.4237H220.409V41.7117ZM225.264 18.7077L230.628 17.8437V23.4237H237.072V27.8877H230.628V34.5477C230.628 35.6757 230.82 36.5757 231.204 37.2477C231.612 37.9197 232.416 38.2557 233.616 38.2557C234.192 38.2557 234.78 38.2077 235.38 38.1117C236.004 37.9917 236.568 37.8357 237.072 37.6437L237.828 41.8197C237.18 42.0837 236.46 42.3117 235.668 42.5037C234.876 42.6957 233.904 42.7917 232.752 42.7917C231.288 42.7917 230.076 42.5997 229.116 42.2157C228.156 41.8077 227.388 41.2557 226.812 40.5597C226.236 39.8397 225.828 38.9757 225.588 37.9677C225.372 36.9597 225.264 35.8437 225.264 34.6197V18.7077Z" fill="url(#paint0_linear_21_16)"/>
<rect x="57.2654" y="13.9118" width="7.37293" height="36.8647" rx="3.68647" transform="rotate(30.3374 57.2654 13.9118)" fill="#DBF4FF"/>
<rect x="38.8117" y="17.4896" width="7.37293" height="36.8647" rx="3.68647" transform="rotate(-29.6626 38.8117 17.4896)" fill="#DBF4FF"/>
<rect x="32.6833" y="35.2599" width="7.37293" height="36.8647" rx="3.68647" transform="rotate(-89.6626 32.6833 35.2599)" fill="#DBF4FF"/>
<rect x="54.0837" y="12.0498" width="7.37293" height="36.8647" rx="3.68647" transform="rotate(30.3374 54.0837 12.0498)" fill="#B4E0F3"/>
<rect x="35.63" y="15.6276" width="7.37293" height="36.8647" rx="3.68647" transform="rotate(-29.6626 35.63 15.6276)" fill="#B4E0F3"/>
<rect x="29.5017" y="33.3979" width="7.37293" height="36.8647" rx="3.68647" transform="rotate(-89.6626 29.5017 33.3979)" fill="#B4E0F3"/>
<rect x="50.8062" y="10.1317" width="7.37293" height="36.8647" rx="3.68647" transform="rotate(30.3374 50.8062 10.1317)" fill="#9DCADE"/>
<rect x="32.3525" y="13.7095" width="7.37293" height="36.8647" rx="3.68647" transform="rotate(-29.6626 32.3525 13.7095)" fill="#9DCADE"/>
<rect x="26.2242" y="31.4798" width="7.37293" height="36.8647" rx="3.68647" transform="rotate(-89.6626 26.2242 31.4798)" fill="#9DCADE"/>
<defs>
<linearGradient id="paint0_linear_21_16" x1="75.3594" y1="33.8597" x2="267.359" y2="33.8597" gradientUnits="userSpaceOnUse">
<stop stop-color="#9DCADE"/>
<stop offset="1" stop-color="#DBF4FF"/>
</linearGradient>
</defs>
</svg>
