<svg width="1500" height="900" viewBox="0 0 1500 900" fill="none" xmlns="http://www.w3.org/2000/svg">
<path d="M124.5 672.928C120 670.128 119.8 667.028 122.1 663.228C126.8 655.728 131.2 648.128 136 640.728C139.1 635.928 140.5 630.428 146.1 626.528C153.1 621.728 157.8 613.828 164.3 608.128C183.6 591.328 197.9 570.128 215.1 551.428C220.4 545.728 226.4 540.628 231.5 534.728C240.6 524.528 249.3 514.028 258.1 503.728C259.5 491.428 270.2 483.728 273.4 472.228C274.4 468.828 276.2 465.328 278.5 462.528C286.8 452.128 295.1 441.728 303.9 431.828C308.9 426.228 314.7 426.528 321.7 428.928C333.9 433.028 345.5 439.628 358.7 439.828C362.1 439.828 366 437.028 368.9 434.528C379.1 425.828 386.4 415.028 390.7 402.228C391.1 401.128 391.6 400.028 392.3 399.228C404.4 386.228 413.7 371.428 421.6 355.528C429.5 339.828 439 324.928 448 309.728C458.4 292.328 468.7 274.728 479.8 257.728C493.3 237.028 510.5 219.128 528 201.828C534.4 195.528 539.5 196.228 546.3 202.228C556.9 211.428 567.3 221.028 578.6 229.428C587.7 236.228 588.4 235.428 595.8 226.928C623.6 195.128 647.4 160.328 671.2 125.528C688.7 99.8277 706.7 74.4277 724.3 48.8277C731.5 38.4277 738.4 27.8277 745.6 17.4277C748.5 13.2277 752 9.32766 755.2 5.32766C758.5 1.12766 763 1.02766 767.3 4.32766C779.8 14.0277 786.7 27.8277 794.8 40.8277C795.6 42.0277 795.6 43.8277 795.9 45.2277C804.4 49.7277 809.7 57.6277 814 65.9277C817.4 72.6277 819 80.4277 821.7 87.5277C826.3 99.6277 833.8 110.228 844.3 117.228C848.6 120.128 852.2 124.328 856.9 126.428C861.7 128.528 867.4 128.428 872.3 130.428C885.4 135.928 898.9 140.628 904.8 156.128C907.5 163.428 913.3 169.528 917.4 176.328C922.9 185.328 928.5 194.328 933.5 203.628C939.5 214.828 943 227.528 952.7 236.628C953.1 236.928 953.4 237.428 953.6 237.828C960.5 252.128 972.7 261.828 984.4 271.928C990.2 276.928 994.2 282.828 996 290.128C997.9 298.028 999.3 306.028 1001.3 313.928C1001.7 315.328 1003.6 317.328 1004.9 317.428C1011.1 318.028 1016.9 316.828 1022.5 313.228C1028.9 309.228 1036 306.528 1042.9 303.128C1044.1 302.528 1045.3 301.828 1046.2 301.028C1052.3 295.428 1058 295.628 1063.2 302.128C1067.3 307.328 1070.7 313.128 1075 318.228C1077.5 321.228 1080.8 323.528 1084 325.728C1097.8 335.528 1109.9 346.928 1117.8 362.328C1118.5 363.628 1119.1 365.228 1120.2 366.128C1130.2 374.528 1135.3 386.228 1141.4 397.328C1148 409.428 1157.1 419.528 1166.8 429.228C1167.3 429.728 1167.7 430.228 1168.3 430.528C1180.7 436.628 1188 448.228 1197.6 457.228C1203.3 462.528 1209.3 467.728 1214.1 473.728C1219.3 480.128 1223.8 487.228 1227.6 494.528C1234.6 508.028 1237.8 523.528 1249.1 534.728C1252.6 538.228 1256.4 541.428 1260.1 544.828C1266.6 550.728 1273.1 556.628 1279.7 562.528C1282 564.628 1284.7 566.428 1286.9 568.628C1289.3 571.228 1291.4 574.128 1293.6 576.928C1294.1 577.528 1294.1 578.628 1294.7 579.128C1314.2 598.828 1322 624.828 1332.9 649.328C1337.6 659.828 1339.5 670.828 1341.5 681.928C1342 684.928 1342.2 688.428 1338.6 688.728C1336.7 688.828 1333.6 686.028 1332.8 683.928C1330.6 677.628 1326.6 673.028 1321.4 669.328C1310.7 661.728 1302.1 652.028 1294.8 641.228C1292.6 638.028 1291.2 633.528 1291.1 629.628C1290.6 605.228 1281.7 584.528 1265.8 566.328C1260.9 560.728 1256.4 555.128 1249.5 552.128C1248.2 551.528 1246.8 550.528 1246 549.328C1237.6 537.828 1225 534.228 1212.3 530.628C1210.4 530.128 1208.5 528.328 1207.2 526.628C1197.5 514.328 1192.6 499.428 1184.6 486.228C1181.1 480.528 1175.6 476.128 1171.1 471.128C1169.3 469.228 1167.1 467.428 1166.1 465.128C1163.4 459.228 1159.2 457.028 1152.7 457.028C1134.1 456.828 1115.9 454.528 1098.5 447.228C1095.7 446.028 1094.6 444.628 1094.2 441.528C1092.8 430.928 1094.7 420.628 1096.4 410.328C1096.6 409.328 1096.9 408.328 1097.4 407.528C1102.5 399.528 1101 390.028 1093.7 383.928C1087.1 378.328 1079.9 373.328 1074 367.128C1070.2 363.128 1068 357.428 1065.2 352.428C1065 352.128 1065 351.728 1064.9 351.528C1059.7 342.628 1060.4 333.228 1061.4 323.528C1061.9 318.428 1060.1 313.128 1058.7 308.028C1058.4 306.928 1054.8 305.528 1053.5 306.128C1050.4 307.428 1047.6 309.828 1044.8 311.828C1041.5 314.228 1038.3 316.728 1034.9 319.028C1032.4 320.628 1029.7 321.928 1027.2 323.428C1022.5 326.428 1017.7 329.428 1013.1 332.528C1011.9 333.328 1010.9 334.528 1009.9 335.628C1005.1 341.328 1000.4 347.028 995.7 352.528C990.6 350.528 988.6 347.628 987.3 343.528C984.7 334.928 982.3 326.128 978.4 318.128C972.1 305.328 964.7 293.128 957.7 280.728C954.1 274.428 950.1 268.428 946.5 262.228C942 254.528 935.6 253.628 927.6 257.228C922.1 259.728 921.1 263.828 919.7 268.228C917.4 275.928 913.8 282.728 907.7 288.028C902.4 292.728 896.8 294.328 889.7 291.028C874.6 284.028 871.1 286.428 866.6 302.828C862.6 317.228 857.5 331.328 852.7 345.428C852 347.528 850.4 349.728 848.6 350.828C841.9 355.128 834.8 358.928 827.9 362.928C821.7 366.528 815.5 370.028 809.5 373.828C806.8 375.528 804.2 378.028 801.1 375.228C798.2 372.528 799.4 369.228 801.3 366.628C804.9 361.928 809 357.628 812.8 352.928C815.2 349.928 817.4 346.728 819.5 343.428C820.8 341.428 822 339.328 822.9 337.128C829.9 319.928 836.4 302.428 844 285.428C849.7 272.728 851.8 260.428 846.1 247.428C845.6 246.228 845.4 244.828 844.8 243.628C839.9 234.328 841.1 224.928 844.5 215.728C845.7 212.528 847.7 209.628 849.5 206.628C853 200.628 857.3 195.028 859.8 188.628C864.1 177.328 867.2 165.528 870.8 154.028C870.4 153.528 870.1 153.028 869.7 152.428C859.7 156.328 849 159.028 839.8 164.428C829.7 170.228 820.9 178.528 811.5 185.628C806.2 189.628 800.7 193.428 795.2 197.428C791 194.628 789.8 191.528 792.3 186.928C794.5 182.728 795.8 178.028 797.6 173.528C799.2 169.528 800.8 165.528 802.5 161.628C806.1 153.528 807.6 145.428 803 137.128C802.3 135.828 801.4 134.428 801.2 133.028C800.4 123.128 793.1 117.628 786.3 112.228C780.1 107.228 777.2 100.728 775.6 93.6277C773.8 85.5277 772 77.0277 772.9 68.9277C774 58.5277 771.6 48.8277 770 38.9277C768.6 30.6277 764.9 24.6277 757.7 19.0277C746.7 33.7277 735.7 48.4277 724.7 63.1277C717 73.3277 708.7 83.2277 701.4 93.6277C695.6 101.728 691.2 110.828 685.5 119.028C664.9 148.728 643.9 178.128 623.2 207.728C619.8 212.528 613.9 215.528 613 222.128C612.9 222.828 611.5 223.328 610.8 224.028C606.3 228.228 601.8 232.428 597.4 236.628C595.2 238.728 595.8 240.128 598.2 242.128C606.5 248.928 614.4 256.228 622.7 263.028C626.8 266.328 631.5 268.928 635.9 271.928C642.8 276.728 649.7 281.428 656.5 286.328C661 289.628 665.2 293.628 669.8 296.828C674.2 299.928 676.4 303.728 674.4 308.728C671.2 316.928 673.6 322.828 680 328.528C687.2 335.028 690.8 344.028 693.6 353.228C694.2 355.028 693.9 357.228 693.4 359.128C692.7 361.828 691.7 364.528 690.6 367.128C684.9 380.528 685.5 382.528 697.9 390.528C709.6 398.128 710.6 409.128 700.5 419.028C689.9 429.428 688.1 439.528 694.4 452.928C697.2 458.928 699.7 465.128 702.4 471.228C707 482.028 707.6 493.128 705.7 504.528C705.2 507.828 703.6 508.828 700.7 508.528C695.1 507.928 690 506.328 686.6 501.128C685.2 499.028 683.6 497.128 682 495.228C679.4 492.328 676.3 492.228 673 494.128C669.5 496.128 660.8 494.528 657.9 491.828C653 487.328 648 482.928 643 478.628C639.4 475.528 635.5 475.428 631.4 477.728C623.2 482.228 615 486.628 606.9 491.228C598.6 496.028 596.4 495.628 590.9 487.928C589.2 485.528 586.9 483.428 584.9 481.328C582.3 478.628 579.3 476.228 576.9 473.328C572.7 468.128 570.3 467.328 564.7 470.728C558.9 474.228 553.5 478.628 547.5 481.628C526.2 492.328 510.6 509.528 495 526.828C492 530.128 488.6 532.128 484 531.628C482.5 531.428 479.8 530.828 479.7 530.228C479.5 528.428 480 526.228 481.1 524.928C484.6 520.728 488.7 516.928 492.1 512.728C501.9 500.528 511.3 488.028 521.1 475.728C525.2 470.528 529.7 465.628 534 460.628C534.8 459.728 535.7 459.028 536.3 458.028C542.2 448.828 548.4 439.728 553.8 430.328C559.3 420.728 564.4 410.828 569.2 400.828C570.7 397.528 571.8 393.228 571 389.828C568.3 377.828 564.8 366.028 561.5 354.228C560.3 350.028 558.8 346.028 557.7 341.828C555.5 333.228 557 325.628 562.9 318.528C566.9 313.728 569.3 307.728 572.3 302.128C572.9 301.028 573.1 299.328 572.6 298.328C570.1 293.428 567.7 288.428 564.6 284.028C559.6 276.828 553.6 270.228 548.9 262.828C539.6 248.028 535 231.628 533.8 214.328C533.7 213.028 533.6 211.728 533.5 209.928C527.4 215.828 521.2 221.128 515.9 227.028C508.9 235.028 502.4 243.428 495.8 251.828C490.3 258.828 484.7 265.928 479.7 273.328C475.1 280.028 471 287.128 467.1 294.228C455.6 315.028 444.3 335.928 432.8 356.728C424.7 371.328 416.8 385.928 408.2 400.228C403 408.828 396.2 416.628 390.5 424.928C385.4 432.428 379.5 439.028 371.4 443.428C368.4 445.128 367.7 448.028 368.8 451.228C371.6 459.528 373.7 468.228 377.7 476.028C384.1 488.628 378.7 498.128 370.8 506.728C364.9 513.128 360.4 520.028 357.7 528.228C356.8 531.028 355.7 533.928 353.8 536.128C349 541.728 344.1 547.228 335.2 544.628C333.2 544.028 330.3 545.428 328.2 546.528C316.4 553.028 307.5 562.028 303.5 575.228C300.6 584.728 295.3 591.428 285.1 594.528C276.1 597.228 267.3 600.928 259.1 605.328C253.5 608.328 249.3 613.828 244.1 617.528C240 620.428 235.3 622.828 230.6 624.728C227.3 626.028 224.5 623.828 225.2 620.528C225.9 617.228 227.8 613.728 230.3 611.528C240.8 601.828 252.2 593.028 262.3 582.928C269 576.228 271.9 566.928 271.3 557.228C271 551.028 272.9 546.728 277.8 542.628C290.3 532.128 302.2 520.928 314.4 510.028C318.4 506.428 319.8 502.528 317.9 497.128C316.9 494.328 317.1 490.828 317.9 487.828C322 472.628 319.6 457.428 318.3 442.128C318.2 440.828 317.6 439.628 316.7 436.828C311.7 441.428 306.5 444.828 303.3 449.428C291.2 466.728 278.8 483.928 268.1 502.128C259.9 516.228 248.3 527.528 239.1 540.628C222.2 551.128 213.5 569.928 197.8 581.628C196.9 582.328 196.2 583.328 195.4 584.228C180.7 602.028 165.8 619.828 151.3 637.828C143.5 647.528 136.4 657.828 129 667.828C127.3 669.328 126 671.028 124.5 672.928Z" fill="#656565"/>
<path d="M448 478.028C448.5 482.028 449.1 485.528 449.2 488.928C449.4 492.528 449.2 496.128 449.1 499.628C449 501.328 448.7 503.028 448.5 504.628C449.4 506.228 450.2 508.228 451.4 509.828C453.5 512.728 456.1 515.228 458.2 518.128C459.3 519.628 460 521.528 460.9 523.128C458.8 524.028 456.8 525.128 454.6 525.728C453.6 526.028 452.3 525.128 451.2 525.228C449.6 525.528 447.1 526.028 446.9 526.928C446.3 529.128 445.9 532.328 447.1 533.828C450.1 537.528 453.9 540.528 457.5 543.728C458.6 544.728 459.9 545.528 461.3 546.028C466.7 548.228 467.6 551.628 463.3 555.628C460.1 558.628 455 559.428 453.5 564.528C453.3 565.228 451.1 565.228 449.6 565.628C449.9 570.828 453 574.428 457 577.228C461.4 580.228 466.2 582.728 470.5 585.728C471.8 586.628 473.2 589.228 472.8 590.328C472.2 591.828 470 593.328 468.2 593.728C465.2 594.428 462 594.228 460 594.328C457.4 596.628 455.6 598.228 453.4 600.228C455 610.828 462.7 618.128 474.9 619.928C477.9 620.428 481.2 620.428 481.3 624.528C481.4 629.728 479 632.328 474.4 633.028C470.8 633.628 467.1 634.128 463.7 635.328C460.7 636.328 459.4 638.828 462.1 641.428C465.2 644.328 468.5 647.028 472 649.328C476.3 652.128 480.9 654.328 485.1 656.628C483.9 658.728 481.9 660.628 482.1 662.328C482.8 668.028 479.4 669.328 475.1 669.728C468.8 670.328 462.5 670.628 455.8 671.028C456.7 671.628 457.7 672.328 458.9 673.028C464.8 676.428 470.8 679.728 476.7 683.128C477.7 683.728 479.3 684.928 479.1 685.428C477.3 691.728 481.5 690.628 485.2 690.828C486.8 690.928 488.3 692.328 489.9 693.228C486.3 699.128 486.1 699.328 471.7 702.328C476.4 705.028 479.4 709.528 485.2 711.128C490 712.428 493.9 716.828 498.6 719.028C504 721.628 509.8 723.528 515.5 725.228C516.6 725.528 519.1 723.728 519.6 722.428C520.1 721.128 519.2 718.928 518.2 717.628C517.1 716.228 515 715.828 513.7 714.528C511 711.728 507.9 708.928 506.3 705.528C504 700.328 505.1 699.128 510.6 697.728C512 697.328 513.7 697.028 514.8 696.128C520.9 691.028 526.9 685.828 533.9 679.828C527 678.828 523.6 675.728 521.4 670.828C520.8 669.628 519.1 668.928 518.3 667.828C517.3 666.328 515.9 664.528 516 662.928C516.1 661.728 518.2 660.028 519.6 659.728C531.8 657.428 536.6 646.228 545.4 640.028C545.2 639.528 545.1 639.128 544.9 638.628C540.6 637.728 536.3 636.828 532 635.928C526.1 634.728 524 632.528 524 627.528C524 622.028 528.1 621.228 532.1 620.628C543.2 618.928 549.8 612.428 552.6 603.028C548.9 600.428 545.2 598.528 542.6 595.828C538.4 591.428 539.5 585.728 545.3 583.928C560.2 579.328 562.4 568.028 562.4 554.828C562.4 546.128 562.5 537.528 563.2 528.828C563.4 526.528 565.6 524.328 566.9 522.128C567.7 524.628 569.6 527.228 569.1 529.528C567.3 539.128 570.4 548.028 572.3 557.128C573.8 564.528 576.8 571.628 578.8 578.928C580.1 583.528 581.6 587.628 585.9 590.528C587.1 591.328 587.9 594.128 587.5 595.628C587.2 596.828 585 597.828 583.4 598.428C582.1 598.928 580.5 598.728 578 598.828C580.1 600.428 581.6 601.428 583.3 602.728C583.2 603.328 583.1 604.228 582.8 604.928C579.1 613.428 579.2 615.028 585.8 621.528C589.5 625.128 592.5 629.328 598.8 629.828C601.1 630.028 603.6 636.528 604.4 640.528C605.1 643.928 601 644.028 598.4 645.028C593.4 647.028 588.6 649.828 583.8 652.228C586.7 657.428 592.9 659.728 597.3 658.028C599.4 657.228 601.9 656.928 604 657.528C605.6 657.928 607.8 660.328 607.6 661.528C607.3 663.928 605.7 666.128 604.4 668.328C603.6 669.828 601.8 671.128 601.6 672.628C601.2 676.728 599 678.128 595.3 678.128C594.3 678.128 593.1 677.628 592.4 678.028C590.4 679.228 588 680.328 587.1 682.228C586.6 683.128 588.4 686.228 589.9 687.128C595.8 690.828 602.2 693.828 608.1 697.528C610.2 698.828 613.4 701.828 613 703.028C611.9 706.228 609.7 709.928 604.9 707.528C601.7 717.028 593 710.728 587.7 714.128C587.4 720.028 590.1 724.328 595.5 725.728C600.6 727.028 605.8 727.828 611 728.428C615.9 728.928 618.8 731.528 618 736.128C617.7 737.828 616.1 739.928 614.6 740.628C610.7 742.528 608.2 745.228 606.8 749.928C608.9 750.528 610.8 751.028 613.6 751.828C611.3 746.028 614.2 744.428 618.1 742.828C625.7 739.628 630.9 733.528 632.9 726.628C630.2 726.128 627.4 725.828 624.8 725.028C621.2 724.028 619.2 721.428 619.2 717.628C619.2 714.228 621 712.228 624.4 711.228C630.4 709.628 633.5 704.928 635.6 700.328C632.1 698.628 628.7 697.228 625.6 695.328C624.6 694.728 623.9 691.628 624.4 691.228C627.7 688.328 631.1 684.928 635 683.628C638.3 682.528 640.5 681.428 642.4 678.628C647 671.928 649.3 664.728 648.5 656.528C648.1 652.428 648.5 648.228 649 644.028C649.1 642.828 650.8 641.728 651.8 640.628C652.8 641.928 653.9 643.128 654.8 644.428C655 644.728 654.8 645.428 654.8 645.928C655.4 655.428 656 664.828 657.8 674.428C659.5 683.828 663.9 689.028 670.3 694.228C670.4 694.328 670.6 694.428 670.7 694.528C673.8 696.228 674.5 698.528 672.4 701.428C670.4 704.228 668.1 703.828 665.4 702.428C663.5 701.428 661.3 700.828 659.1 700.028C658.1 709.928 663.4 718.428 671.9 721.328C674.6 722.228 677.1 723.428 676.2 726.928C675.5 729.628 674.3 731.328 670.5 730.728C665 729.928 661.5 735.428 664.4 739.928C666.5 743.028 669.9 745.328 673 747.528C676.2 749.828 680.3 751.028 683.2 753.628C684.8 755.028 685.5 758.328 685.2 760.628C685.1 761.828 682.2 763.528 680.5 763.728C677.2 764.128 673.8 763.528 669.7 763.428C670.2 765.028 670.3 767.528 671.5 768.728C675.4 772.428 679.4 776.228 683.9 779.028C688.2 781.728 693.3 783.228 698 785.328C712.3 791.628 726.6 797.828 740.8 804.328C752.8 809.728 764.5 815.628 776.5 821.028C787.1 825.728 797.7 830.528 808.6 834.428C828.1 841.428 847.9 847.628 867.6 854.228C869.2 854.728 870.7 855.328 872.3 855.828C891.5 862.428 910.5 869.728 930 875.428C942.8 879.228 956.3 880.828 969.4 883.428C971.2 883.828 973.1 883.928 974.7 884.728C984.8 889.628 995.5 890.028 1006.4 890.428C1008.8 890.528 1012.5 889.628 1012.3 893.828C1012.1 897.528 1009.3 898.328 1005.8 898.328C981.9 898.728 958.2 897.428 935 891.628C934.4 891.428 933.7 891.328 933 891.328C911.2 890.328 890.4 884.428 869.5 878.828C846.9 872.728 824.1 866.928 801.6 860.528C791.5 857.628 781.8 853.528 772 850.028C762.4 846.628 752.8 843.528 743.3 839.928C730.8 835.328 718.3 830.728 706.1 825.528C690 818.728 674.2 811.228 658.2 804.228C650.6 800.928 642.7 798.228 635 795.028C619.8 788.828 604.8 782.228 589.5 776.128C544.9 758.528 499.4 743.828 452.8 732.728C446.4 731.228 439.6 731.028 433 729.828C412.4 725.928 391.3 723.528 371.4 717.428C348.2 710.328 324.8 711.128 301.2 710.328C285.4 709.828 269.6 708.628 253.8 708.528C230.7 708.328 207.8 711.628 185 715.528C171.1 717.828 157.1 719.928 143.2 722.228C140.7 722.628 138.3 723.128 135.9 723.928C103.7 734.728 71.4 745.328 39.4 756.428C30.5 759.528 22 764.128 13.3 767.828C9.1 769.628 4.8 770.828 0 766.828C1.4 765.428 2.5 763.728 4 762.828C12.8 757.828 21.3 752.328 30.6 748.328C47.2 741.128 62.5 731.228 80.4 726.528C104.2 720.328 127.6 712.328 151.3 705.628C160.2 703.128 169.4 701.828 178.5 700.028C187.3 698.228 196.1 696.228 205 694.828C218.4 692.828 231.9 690.928 245.4 689.728C254.5 688.928 263.7 689.828 272.8 689.228C279.7 688.828 286.5 687.328 293.5 686.628C297.2 686.228 301 686.528 305.6 686.528C303.1 679.228 298.1 681.628 294.1 681.428C290.2 675.428 290.5 674.828 296.7 671.428C301.4 668.828 305.9 666.128 310.3 663.028C311.7 662.028 312.5 659.828 312.8 658.128C312.9 657.528 310.3 656.728 309.3 655.728C305.8 652.328 302.2 649.028 299.2 645.228C297.8 643.428 301.4 639.228 303.7 638.328C308.4 636.328 313 633.828 318.8 631.028C315.8 629.228 314.1 628.228 312.5 627.228C307.6 623.928 307.7 620.628 312.3 617.228C319.8 611.528 324.2 604.028 324.7 594.328C324.9 590.728 325.6 587.128 326.4 583.528C326.7 582.328 328 581.528 328.9 580.528C329.7 581.728 331.1 582.928 331.2 584.228C331.5 588.528 331 592.928 331.3 597.228C331.8 605.028 334.7 611.928 340.7 616.928C347.9 622.928 347.9 625.128 340.2 630.628C337.6 632.528 336.3 635.228 338.5 637.928C340.6 640.528 343.4 642.728 346.1 644.828C347.6 646.028 350 646.328 351.3 647.628C352.6 648.928 353 651.128 353.8 652.928C352 653.728 350.2 655.128 348.4 655.128C346 655.128 344 654.228 342.9 657.528C342 660.428 341 662.828 344.4 664.728C349.2 667.328 354 669.828 358.5 672.828C360.2 673.928 361 676.428 362.3 678.228C360 679.528 357.5 682.128 355.3 681.828C351 681.328 348.3 683.028 345.2 686.728C348.8 687.828 351.8 689.028 354.9 689.628C359.8 690.528 364.8 691.028 369.8 691.528C372.6 691.828 375.9 693.428 377.3 689.128C377.5 688.628 378.8 688.428 379.5 688.428C394.9 687.528 405 678.128 414.4 666.628C409.6 662.828 405.4 658.728 398.5 659.928C396.6 660.228 393.7 659.928 392.5 658.728C390.5 656.828 388.8 653.928 388.6 651.228C388.5 650.228 392.6 647.528 394.7 647.728C403.9 648.328 411.1 644.028 418.1 639.128C420 637.828 421.2 635.628 421.8 634.928C417.9 631.728 415.2 629.328 412.2 627.328C410.1 625.828 407.7 624.728 405.3 623.728C404 623.128 402 623.528 401.1 622.628C399.4 621.128 398.3 618.928 397 617.028C399.1 615.928 401 614.428 403.2 613.828C412.5 611.528 422.6 610.828 427.7 600.528C424.7 599.428 421.7 598.628 419.1 597.128C416.4 595.528 414.3 593.128 418.8 589.828C412.4 587.828 413.4 582.628 413 578.228C412.9 577.028 414.4 575.228 415.6 574.528C418.4 573.028 421.4 572.028 424.4 571.128C428.9 569.728 431.7 566.928 433.7 562.228C426.1 561.528 421.7 557.828 420.3 550.328C419.7 546.928 420.4 545.028 423.5 543.628C430.9 540.128 435.3 533.828 440 526.528C436.6 527.028 434.2 527.628 431.8 527.528C430.2 527.528 427.5 526.628 427.4 525.828C427.1 524.128 427.8 521.828 428.9 520.528C430.8 518.328 433.9 517.028 435.6 514.628C437.4 512.128 438.7 508.928 439 505.928C439.7 499.528 439.4 493.028 439.8 486.628C440.6 482.628 442.5 479.828 448 478.028Z" fill="#656565"/>
<path d="M763.3 803.028C763.8 802.328 764 801.728 764.5 801.328C770.5 796.728 776.6 792.428 782.4 787.628C784.7 785.628 786.3 782.728 788.2 780.328C781.7 775.028 782.1 771.028 788.9 767.128C790.8 766.028 792.7 765.228 795.2 763.928C793.9 762.228 792.8 760.828 791.7 759.528C787 753.828 787.9 750.828 795.2 748.528C796.1 748.228 797.4 748.228 798 747.628C799 746.528 799.6 745.028 799.9 744.528C796.8 742.128 793.7 740.528 792 738.028C790.3 735.528 791.1 732.728 794.5 731.128C797.6 729.628 800.4 727.528 803.9 725.328C801.8 723.428 800.2 722.028 798.8 720.528C795.6 717.128 796.3 713.828 800.4 711.628C808.6 707.228 808.9 706.528 807.9 697.128C807.6 694.028 807 690.728 807.6 687.728C808 685.828 810.4 684.328 811.9 682.528C813 684.328 814.8 686.028 815 687.928C816 695.828 816.3 703.828 817.3 711.728C817.7 714.628 818.6 718.028 822.8 718.428C823.4 718.528 824.3 720.528 824.2 721.528C824.1 722.828 823.3 724.528 822.3 725.028C820.6 725.928 818.5 725.928 816 726.428C817.8 732.328 820.7 736.828 826.8 739.128C829.7 740.228 832.1 742.428 834.5 743.928C830.9 753.828 823.5 747.628 817.7 750.528C820.3 751.828 822.8 753.328 825.5 754.328C828.8 755.428 829.7 757.428 829.5 760.728C829.3 763.828 830.8 765.128 833.9 763.628C841.2 760.028 848.6 756.528 855.9 752.828C856.3 752.628 856.5 752.128 857.5 750.728C854.9 750.428 852.9 750.328 851 749.928C848.8 749.528 846.4 749.228 844.4 748.428C843.5 748.028 842.3 746.228 842.6 745.328C843.5 742.228 844.4 738.928 846.3 736.528C847.8 734.628 850.7 733.328 853.2 732.928C859.4 732.028 863.9 729.328 867.2 723.828C869.1 720.728 872.5 718.628 875.3 716.128C875.2 715.628 875.1 715.028 874.9 714.528C871.9 713.928 869 713.228 866 712.628C863.4 712.128 860.8 711.628 858.1 711.228C854.3 710.728 851.5 708.928 851.9 704.928C852.3 700.728 856.2 699.928 859.6 699.028C861.5 698.528 863.4 697.928 865 696.928C867.4 695.528 869.6 693.728 872 692.128C878.3 688.028 882.3 681.928 883.6 674.928C877.8 672.228 872.1 669.928 866.8 666.928C865.2 666.028 863.4 662.228 864 661.428C866 658.728 864.8 654.228 869.5 652.728C873.6 651.328 877.1 648.428 880.8 646.028C882.3 645.028 883.7 643.728 885 642.428C886.9 640.528 890.5 638.128 890.2 636.628C889.4 632.828 888.2 628.728 883.2 627.228C880.4 626.428 878.1 623.928 875.6 622.128C877.8 620.028 880 618.028 882.1 615.928C885.5 612.428 889.2 609.128 891.9 605.128C893.6 602.628 891.5 601.128 888.7 600.528C886.9 600.128 883.8 598.528 883.9 598.028C884.5 595.728 885.3 592.428 887.1 591.528C892.8 588.828 896.5 584.328 899.4 579.228C900.7 576.828 901.3 573.928 901.6 571.128C902.3 562.128 902.5 553.128 903.3 544.228C903.5 541.728 905.1 539.328 906.1 536.828C910.8 538.628 910.7 541.428 910.5 544.628C910 553.428 909.1 562.228 909.4 571.028C909.8 579.828 912.2 588.028 921.8 592.028C923.3 592.628 924.2 596.028 924.3 598.228C924.3 599.128 921.5 601.128 920.2 600.928C916.3 600.428 915.7 603.528 914.8 605.728C914.1 607.528 914 610.628 915 612.028C918.4 616.528 922.6 620.228 928 622.228C928.5 622.428 928.9 622.528 929.4 622.728C932.1 623.828 935.8 624.128 935.3 628.228C934.8 632.528 931.5 632.928 927.9 633.128C921.9 633.428 920 635.228 919.4 640.528C918.9 644.728 921.9 648.528 927 649.528C931.2 650.328 935.4 650.628 939.6 651.528C940.8 651.828 942.8 653.728 942.6 654.528C942.3 656.128 940.9 657.928 939.5 658.628C936.8 660.028 933.2 660.228 934.1 665.028C934.2 665.728 931.1 667.228 929.4 667.928C924.8 669.928 923.8 671.928 927.3 675.028C930.2 677.628 934.7 678.428 938.3 680.128C940.3 681.128 942.1 682.428 944 683.628C942.8 685.328 942.1 687.928 940.5 688.628C934.9 691.028 929 692.728 923.2 694.728C924 701.028 935.9 709.528 945.3 710.228C945.5 712.428 945.6 714.628 945.8 717.328C948.3 716.528 950.6 715.728 953 715.228C954.5 714.928 957.1 714.728 957.6 715.528C960.2 719.328 963 717.328 966.3 716.528C964.5 711.828 967.1 709.628 970.4 707.628C973.8 705.528 977.1 703.228 980.2 700.728C981.5 699.628 982.4 697.928 983.9 695.828C980.7 695.428 978.4 695.328 976.2 694.828C974.6 694.428 972.6 694.028 971.6 692.928C965.7 686.728 965.7 685.628 972.5 680.128C976.7 676.828 981.5 674.128 985.7 670.928C987.9 669.228 989.5 666.928 992 664.128C988.1 663.228 985.1 662.528 982.1 661.728C980.5 661.328 978.8 661.028 977.4 660.228C971.4 656.928 971.3 654.128 976.7 650.028C981.4 646.528 986.1 643.128 991.7 638.928C989.2 637.828 988.2 637.528 987.3 636.928C986 636.028 984.4 635.128 983.7 633.828C981.6 630.128 986.4 620.028 990.5 619.028C994.1 618.128 997.6 614.128 1001 606.728C999.3 606.128 997.6 605.528 996 604.828C991.8 602.828 991.3 598.828 995.1 596.328C1004.2 590.328 1006.9 581.128 1008 571.128C1008.4 567.028 1008 562.828 1008.3 558.628C1008.5 556.528 1009.6 554.528 1010.2 552.428C1010.9 552.328 1011.6 552.228 1012.4 552.228C1013.3 554.928 1014.8 557.628 1014.9 560.428C1015.1 566.228 1014.7 572.028 1014.5 577.928C1014.1 586.928 1015.5 595.128 1022.9 601.428C1025.4 603.528 1027.1 606.428 1030.1 610.128C1025.4 611.228 1021.9 612.128 1017.7 613.128C1019.1 620.828 1019.2 629.528 1027.9 634.028C1031.5 635.828 1032.9 638.528 1031.4 642.128C1030 645.628 1027.4 647.828 1023.1 646.728C1022.2 646.528 1021.2 646.728 1018.5 646.728C1021.3 650.228 1023.1 653.028 1025.4 655.328C1027.1 657.028 1029.3 658.428 1031.4 659.728C1039.5 664.428 1039.8 665.628 1033.5 672.328C1032.1 673.828 1030.9 675.728 1028.9 678.428C1033.9 680.528 1038 682.828 1042.5 684.028C1045.6 684.828 1046.7 686.428 1046 688.828C1045.5 690.628 1043.9 693.028 1042.3 693.428C1038.9 694.328 1035.3 694.128 1031.7 694.328C1031.7 694.928 1031.7 695.428 1031.6 696.028C1033.5 696.228 1035.5 696.728 1037.4 696.528C1049 695.528 1060.6 693.728 1072.2 693.628C1077.5 693.628 1081.4 692.628 1085.8 688.328C1083.3 686.628 1080.7 685.128 1078.3 683.328C1076.8 682.228 1075 680.828 1074.7 679.328C1074.5 678.228 1076.3 676.328 1077.6 675.328C1081 672.928 1084.7 671.028 1088.2 668.728C1089.6 667.828 1090.8 666.428 1093 664.428C1088 664.028 1083.9 667.328 1080.5 662.928C1076.9 658.328 1080.5 655.628 1082.2 651.928C1087.6 653.728 1090.5 650.728 1092.6 646.228C1095.9 639.428 1087.6 639.528 1086 634.928C1091.8 632.428 1095.7 627.728 1096.9 621.428C1097.6 617.728 1097.4 613.828 1097.5 610.028C1097.6 605.328 1098.9 603.328 1103.8 601.528C1104.1 608.828 1103.8 616.228 1105 623.228C1105.7 627.328 1108.3 631.428 1111 634.928C1112.7 637.128 1117.6 636.928 1116.7 641.228C1115.8 645.528 1112.3 646.128 1108.5 645.728C1108 645.728 1107.5 645.928 1106 646.128C1109.8 651.628 1110.9 658.428 1119.1 659.328C1120.4 659.428 1121.5 662.128 1122.7 663.728C1121.3 664.728 1119.9 666.328 1118.3 666.728C1116.1 667.228 1113.8 666.828 1111.2 666.828C1111.9 673.528 1114.9 677.828 1120.5 679.828C1126.8 682.128 1127.3 683.228 1123.6 688.628C1123.3 689.028 1123.3 689.528 1122.8 690.628C1125.2 690.828 1127.4 691.228 1129.6 691.328C1140.1 691.628 1150.6 692.028 1161.1 692.028C1166.2 692.028 1167.2 690.328 1165.1 685.728C1163.3 681.828 1165.3 679.128 1168.1 677.228C1170.9 675.328 1172 673.828 1170.2 670.328C1169.4 668.828 1170.4 665.728 1171.6 664.028C1174.7 659.328 1179.9 655.828 1178.9 649.028C1178.7 647.428 1180.1 645.528 1180.8 643.728C1185.7 645.328 1187 648.728 1186.9 652.628C1186.7 658.928 1189 664.028 1193.3 668.628C1196 671.428 1195.6 674.728 1193.1 677.628C1192.2 678.728 1191 679.628 1189.6 680.928C1193.3 684.428 1198.1 687.328 1193.9 693.828C1200.5 694.228 1206.8 694.628 1213 694.928C1227.8 695.628 1242.6 696.228 1257.4 697.128C1266.5 697.628 1275.7 697.828 1284.6 699.328C1300.1 702.028 1315.5 705.728 1331 708.828C1341 710.828 1351 712.228 1361 714.228C1368.1 715.628 1375.2 717.128 1382.2 719.228C1407.7 726.828 1433.1 734.828 1458.7 742.328C1471.4 746.028 1483.2 751.628 1494.3 758.728C1495.9 759.728 1497.4 761.228 1498.3 762.928C1500.2 766.328 1498.4 768.928 1494.5 768.328C1492.1 768.028 1489.6 767.328 1487.3 766.528C1479 763.628 1470.7 760.828 1462.5 757.528C1452.8 753.628 1443.2 749.328 1433.6 745.328C1432.5 744.828 1431.5 744.428 1430.3 744.028C1402.7 735.928 1375 728.728 1346.2 725.628C1329.8 723.828 1313.7 720.728 1297.1 720.328C1282 719.928 1266.9 718.328 1251.8 717.228C1245.6 716.728 1239.4 715.928 1233.1 715.828C1227.6 715.728 1222.2 716.728 1216.7 717.028C1206.9 717.428 1197.2 717.628 1187.4 717.928C1143.2 719.628 1099.4 724.728 1055.8 731.728C1022.8 737.028 989.7 741.928 956.9 748.228C932.3 752.928 908.1 760.028 883.6 765.128C854.5 771.228 826.2 780.028 798.9 791.728C789.3 795.828 779.8 800.128 770.3 804.328C767.9 805.728 765.4 806.728 763.3 803.028Z" fill="#656565"/>
<path d="M1242.2 622.628C1244.1 623.928 1246.3 624.728 1247.4 626.228C1249.2 628.828 1247.9 630.928 1242.2 635.628C1229.6 632.028 1219.6 623.428 1207.1 619.328C1190.2 613.728 1176.4 602.228 1164.1 588.628C1158.9 582.828 1149.5 580.828 1141.8 577.528C1139.3 576.428 1136.2 576.428 1133.4 576.328C1115.5 576.128 1103.9 566.028 1094.5 552.128C1092.7 549.428 1090.1 547.228 1087.9 544.628C1085.7 541.928 1083.1 539.428 1081.7 536.328C1079.9 532.528 1077.1 531.428 1073.7 531.828C1063.1 533.128 1052.7 534.928 1044.4 542.728C1041 545.928 1036.1 544.428 1032.7 540.728C1027.3 534.928 1021.2 529.628 1015.5 524.028C1013.6 522.228 1012 519.928 1009.9 518.428C1008.1 517.128 1005.8 515.928 1003.7 516.028C993.3 516.428 984.2 519.928 978.5 529.228C971.4 540.828 964.5 552.628 957.8 564.528C956 567.628 955.6 571.528 953.8 574.528C952.7 576.228 949.9 576.928 947.9 578.028C947.4 576.028 946.3 573.928 946.4 571.928C946.5 565.228 946.3 558.428 947.4 551.928C949.2 541.628 946.6 531.428 947.7 521.128C948.7 511.528 946.3 501.528 947.1 491.828C947.9 481.228 942 475.328 935 469.428C931.1 466.128 927.3 462.628 923.5 459.128C920 455.928 919 447.128 921.7 442.328C927.2 432.728 929.6 422.928 926.2 411.828C923.5 403.328 923.2 394.028 920.4 385.528C918 378.328 914.2 371.528 910.1 365.128C906.7 359.928 898.8 360.628 895.2 366.028C893.2 369.028 891.8 372.528 889.7 375.528C882.5 385.728 875.6 396.128 867.7 405.728C851.2 425.828 834 445.228 817.5 465.228C807.9 476.928 799 489.128 790 501.328C787.6 504.628 785.6 508.428 784.2 512.328C781.5 519.928 775.5 523.228 768.5 525.628C761.9 527.828 755 529.628 748.9 533.028C736.4 539.928 724.8 548.328 712.2 554.828C703 559.628 692.8 562.628 682.9 565.728C681.3 566.228 678.1 563.128 676.5 560.928C675.9 560.128 677.5 556.728 679 555.628C687.2 549.328 695.1 542.528 704.1 537.528C715.9 530.928 724.1 520.328 734.3 512.028C742.9 505.028 750.7 497.128 759.5 490.328C766 485.228 773.9 481.928 780.5 476.828C800.4 461.628 817.7 443.528 834.9 425.428C843.3 416.628 852 408.128 859.8 398.828C865.5 392.028 869.6 383.828 874.9 376.628C882.8 366.028 890.8 355.328 899.6 345.428C904.2 340.128 906.6 340.628 911.9 345.528C925.6 358.228 939.5 370.628 950.3 386.028C955.1 393.028 959.6 400.428 965.4 406.428C969.9 411.128 973.8 416.228 979.6 420.028C985.6 424.028 991.6 426.828 998.2 429.028C999.7 429.528 1001 430.828 1002.2 431.928C1006.1 435.728 1010.1 439.428 1013.6 443.528C1016.7 447.228 1019.1 451.528 1022.2 455.228C1027.6 461.728 1035 464.528 1043.2 465.428C1046.2 465.728 1049.2 465.628 1052.2 465.428C1062.9 464.628 1071.5 467.628 1078.5 476.628C1090.7 492.228 1101.1 508.628 1109.4 526.528C1116 540.828 1127.7 550.328 1143.4 554.228C1145.6 554.828 1147.7 555.928 1149.9 556.628C1154.4 558.028 1159 559.228 1163.5 560.828C1169.7 563.028 1176.5 564.628 1181.8 568.228C1189.5 573.428 1196.2 580.228 1203.2 586.428C1204.3 587.428 1205.4 588.628 1205.9 590.028C1208.7 597.228 1215.1 600.928 1220.6 605.428C1227.9 611.328 1235.2 617.028 1242.2 622.628Z" fill="#656565"/>
<path d="M741.1 103.628C741.1 105.228 741.5 107.028 741 108.528C738 119.228 734.9 129.928 731.8 140.628C731.5 141.728 731.2 142.928 731.1 144.028C730.8 153.828 730.7 163.528 730.2 173.328C729.5 189.028 723.1 202.128 711.2 212.328C710.1 213.328 708.9 214.228 707.5 214.928C697.3 219.728 691.5 229.628 682.9 236.328C678.2 239.928 673.4 243.428 668.7 247.028C668 247.628 667 248.828 667.1 249.328C668.3 252.728 666.7 254.828 664 256.128C661.7 257.228 659.1 257.928 656.6 258.728C654.9 259.328 653.2 260.228 651.4 260.428C646.7 260.928 641.9 261.728 637.3 261.128C633.9 260.728 633.5 257.528 634.8 254.428C636.8 249.928 641.8 246.528 640.2 240.528C651.6 230.428 651.7 214.328 660.4 202.828C664.5 197.528 669.4 192.728 674.4 188.128C682.8 180.428 692.9 174.028 699.9 165.228C707 156.328 711.6 145.228 716.9 134.928C720.9 127.128 723.7 118.628 728.1 111.128C730.3 107.428 735 105.328 738.6 102.528C739.6 102.928 740.4 103.228 741.1 103.628Z" fill="#656565"/>
<path d="M508.6 304.728C507.5 306.828 507 307.928 506.3 308.828C494.7 325.428 491.3 344.928 487.2 364.128C484.6 376.428 477.4 384.728 464.9 387.128C462.1 387.628 459.3 388.128 456.5 388.628C445.7 390.428 440.3 398.228 434.6 406.528C431 411.628 424.7 415.028 419.3 418.628C418.4 419.228 415.6 417.728 414.2 416.528C413.7 416.128 414.5 413.528 415.4 412.428C423 401.528 430.9 390.928 438.3 380.028C448.1 365.728 457.5 351.228 467.1 336.928C468.1 335.428 469.3 333.928 470.6 332.728C480.1 323.628 489.6 314.528 499.1 305.428C500.2 304.428 501.5 302.828 502.6 302.928C504.6 302.828 506.5 303.928 508.6 304.728Z" fill="#656565"/>
<path d="M710.4 301.328C703.8 297.028 704.3 296.328 709.7 290.428C719.7 279.528 728.4 267.728 733.4 253.428C735.1 248.728 738.1 244.328 741.3 240.528C743.6 237.828 747 235.828 750.4 234.628C756.8 232.228 761 227.528 765.6 222.928C771.1 217.428 777.1 212.428 783.1 207.428C784.3 206.428 786.6 206.728 788.5 206.328C788.7 208.228 789.5 210.428 788.8 211.928C785.4 219.228 781.4 226.328 777.8 233.528C776.2 236.828 775.3 240.628 773.7 243.928C771.3 248.928 768.6 253.728 765.8 258.528C764.6 260.428 762.7 261.928 761.3 263.728C750.4 277.328 739.3 290.328 721.5 295.428C717.6 296.528 714.2 299.228 710.4 301.328Z" fill="#656565"/>
<path d="M870.8 423.328C874.7 425.228 875.3 427.728 874.3 431.328C871.7 440.628 869.6 449.928 867.2 459.328C866.6 461.528 866.3 464.028 865.1 465.928C856.9 479.228 850.8 494.028 839.4 505.028C830.6 513.528 820.6 520.928 810.9 528.328C809.2 529.628 805.2 530.128 803.8 528.928C801.1 526.728 803.5 524.128 804.9 521.528C808.5 515.028 811.7 508.228 815 501.528C820.6 490.028 826 478.428 831.6 466.928C832.6 464.928 834 462.828 835.7 461.428C848.4 451.328 860.2 440.528 868.4 426.228C869 425.228 869.9 424.428 870.8 423.328Z" fill="#656565"/>
<path d="M516.3 364.928C516.5 366.828 517.4 368.928 516.7 370.428C510.4 385.828 502.1 399.428 487.2 408.728C478 414.528 469.4 422.128 463.9 432.228C460.6 438.228 457.3 444.328 453.6 450.128C452.5 451.928 450.3 453.228 448.4 454.428C443.9 457.228 439.3 459.828 434.7 462.528C433.4 463.328 432.2 464.228 430.9 464.928C424.7 468.128 418.6 471.328 412.3 474.228C410.7 474.928 407.1 475.128 406.9 474.728C406.1 472.428 405.2 469.428 406.1 467.528C407.5 464.428 410 461.728 412.5 459.328C419.2 452.928 426.3 446.928 433 440.428C435.9 437.628 438.8 434.328 440.5 430.628C444.7 421.328 451.1 415.528 460.4 410.928C480.7 400.928 498.3 387.228 511.7 368.528C512.6 367.228 513.7 366.028 514.8 364.828C515.3 364.828 515.8 364.828 516.3 364.928Z" fill="#656565"/>
</svg>
