<svg width="1500" height="900" viewBox="0 0 1500 900" fill="none" xmlns="http://www.w3.org/2000/svg">
<path d="M1079.82 508.978C1081.72 510.278 1083.92 511.078 1085.02 512.578C1086.82 515.178 1085.52 517.278 1079.82 521.978C1067.22 518.378 1057.22 509.778 1044.72 505.678C1027.82 500.078 1014.02 488.578 1001.72 474.978C996.516 469.178 987.117 467.178 979.417 463.878C976.917 462.778 973.817 462.778 971.017 462.678C953.117 462.478 941.518 452.378 932.118 438.478C930.318 435.778 927.718 433.578 925.518 430.978C923.318 428.278 920.718 425.778 919.318 422.678C917.518 418.878 914.718 417.778 911.318 418.178C900.718 419.478 890.318 421.278 882.018 429.078C878.618 432.278 873.718 430.778 870.318 427.078C864.918 421.278 858.818 415.978 853.118 410.378C851.218 408.578 849.618 406.278 847.518 404.778C845.718 403.478 843.418 402.278 841.318 402.378C830.918 402.778 821.818 406.278 816.118 415.578C809.018 427.178 802.118 438.978 795.418 450.878C793.618 453.978 793.218 457.878 791.418 460.878C790.318 462.578 787.518 463.278 785.518 464.378C785.018 462.378 783.918 460.278 784.018 458.278C784.118 451.578 783.918 444.778 785.018 438.278C786.818 427.978 784.218 417.778 785.318 407.478C786.318 397.878 783.918 387.878 784.718 378.178C785.518 367.578 779.618 361.678 772.618 355.778C768.718 352.478 764.918 348.978 761.118 345.478C757.618 342.278 756.618 333.478 759.318 328.678C764.818 319.078 767.218 309.278 763.818 298.178C761.118 289.678 760.818 280.378 758.018 271.878C755.618 264.678 751.818 257.878 747.718 251.478C744.318 246.278 736.418 246.978 732.818 252.378C730.818 255.378 729.418 258.878 727.318 261.878C720.118 272.078 713.217 282.478 705.317 292.078C688.817 312.178 671.617 331.578 655.117 351.578C645.517 363.278 602.986 398.178 593.986 410.378C591.586 413.678 589.586 417.478 588.186 421.378C585.486 428.978 570.987 445.778 563.987 448.178C557.387 450.378 550.487 452.178 544.387 455.578C531.887 462.478 503.886 491.578 491.286 498.078C482.086 502.878 471.886 505.878 461.986 508.978C460.386 509.478 457.186 506.378 455.586 504.178C454.986 503.378 456.586 499.978 458.086 498.878C466.286 492.578 474.186 485.778 483.186 480.778C494.986 474.178 519.587 442.878 529.787 434.578C538.387 427.578 546.187 419.678 554.987 412.878C561.487 407.778 611.517 368.278 618.117 363.178C638.017 347.978 655.317 329.878 672.517 311.778C680.917 302.978 689.617 294.478 697.417 285.178C703.117 278.378 707.217 270.178 712.517 262.978C720.417 252.378 728.418 241.678 737.218 231.778C741.818 226.478 744.218 226.978 749.518 231.878C763.218 244.578 777.118 256.978 787.918 272.378C792.718 279.378 797.218 286.778 803.018 292.778C807.518 297.478 811.418 302.578 817.218 306.378C823.218 310.378 829.218 313.178 835.818 315.378C837.318 315.878 838.618 317.178 839.818 318.278C843.718 322.078 847.718 325.778 851.218 329.878C854.318 333.578 856.718 337.878 859.818 341.578C865.218 348.078 872.618 350.878 880.818 351.778C883.818 352.078 886.818 351.978 889.818 351.778C900.518 350.978 909.118 353.978 916.118 362.978C928.318 378.578 938.718 394.978 947.018 412.878C953.618 427.178 965.316 436.678 981.016 440.578C983.216 441.178 985.316 442.278 987.516 442.978C992.016 444.378 996.616 445.578 1001.12 447.178C1007.32 449.378 1014.12 450.978 1019.42 454.578C1027.12 459.778 1033.82 466.578 1040.82 472.778C1041.92 473.778 1043.02 474.978 1043.52 476.378C1046.32 483.578 1052.72 487.278 1058.22 491.778C1065.52 497.678 1072.82 503.378 1079.82 508.978Z" fill="#656565"/>
<path d="M708.417 309.678C712.317 311.578 712.917 314.078 711.917 317.678C709.317 326.978 707.217 336.278 704.817 345.678C704.217 347.878 703.917 350.378 702.717 352.278C694.517 365.578 688.417 380.378 677.017 391.378C668.217 399.878 658.217 407.278 648.517 414.678C646.817 415.978 642.817 416.478 641.417 415.278C638.717 413.078 641.117 410.478 642.517 407.878C646.117 401.378 649.317 394.578 652.617 387.878C658.217 376.378 663.617 364.778 669.217 353.278C670.217 351.278 671.617 349.178 673.317 347.778C686.017 337.678 697.817 326.878 706.017 312.578C706.617 311.578 707.517 310.778 708.417 309.678Z" fill="#656565"/>
<path d="M663.739 435.631C665.307 436.418 666.888 438.86 666.486 440.351C665.441 444.201 660.926 451.363 659.961 455.254C659.72 456.165 659.599 457.2 659.117 457.987C655.821 463.493 653.369 469.62 648.787 474.174C645.251 477.693 642.297 482.602 638.398 485.666C637.715 486.204 636.107 486.411 635.545 485.914C634.459 485.003 635.424 483.927 635.987 482.851C637.434 480.16 638.398 476.351 638.98 472.725C641.231 467.964 642.235 458.112 644.486 453.351C644.888 452.523 645.451 451.653 646.134 451.074C651.238 446.892 659.479 442.752 662.775 436.832C663.016 436.418 663.377 436.086 663.739 435.631Z" fill="#656565"/>
<path d="M711.575 668.585C711.197 668.887 711.046 669.34 710.668 669.869C712.255 672.663 714.144 671.908 715.958 670.851C723.137 667.678 743.602 656.976 750.857 653.879C771.487 645.042 792.873 638.395 814.863 633.788C833.377 629.936 851.665 624.573 870.255 621.023C895.041 616.264 920.054 612.563 944.991 608.56C977.939 603.273 1011.04 599.421 1044.44 598.137C1051.84 597.91 1059.17 597.759 1066.58 597.457C1070.74 597.231 1074.82 596.475 1078.97 596.551C1083.73 596.626 1088.42 597.231 1093.1 597.608C1094.86 597.759 1105.46 598.137 1109.96 598.137C1113.56 598.137 1128.46 597.432 1135.46 597.08C1137.13 595.493 1138.86 591.427 1132.46 587.851C1126.06 584.274 1120.08 583.852 1117.89 584.088C1111.17 582.955 1104.21 582.804 1097.34 582.427C1086.15 581.747 1074.97 581.294 1063.78 580.765C1059.1 580.538 1054.34 580.236 1049.35 579.934C1052.52 575.025 1048.9 572.834 1046.1 570.191C1047.16 569.209 1048.07 568.529 1048.75 567.698C1050.64 565.508 1050.94 563.015 1048.9 560.9C1045.65 557.426 1043.91 553.574 1044.06 548.815C1044.14 545.87 1043.15 543.302 1039.45 542.093C1038.92 543.453 1037.86 544.888 1038.02 546.096C1038.77 551.232 1034.84 553.876 1032.5 557.426C1031.59 558.71 1030.84 561.051 1031.44 562.184C1032.8 564.828 1031.97 565.961 1029.85 567.396C1027.74 568.831 1026.23 570.87 1027.59 573.816C1029.17 577.291 1028.42 578.575 1024.56 578.575C1016.63 578.575 1008.7 578.272 1000.76 578.046C999.098 577.97 997.435 577.668 995.622 577.517C996 576.686 996 576.309 996.226 576.007C999.022 571.928 998.644 571.097 993.884 569.36C989.652 567.849 987.385 564.601 986.856 559.541C988.821 559.541 990.559 559.843 992.221 559.465C993.43 559.163 994.488 557.955 995.546 557.199C994.639 555.991 993.808 553.951 992.826 553.876C986.629 553.196 985.798 548.06 982.926 543.906C984.06 543.755 984.438 543.604 984.816 543.604C987.687 543.906 990.332 543.453 991.012 540.205C991.692 536.957 987.989 537.108 986.705 535.446C984.664 532.803 982.7 529.706 982.171 526.609C981.264 521.322 981.491 515.733 981.264 510.219C977.561 511.579 976.579 513.089 976.503 516.639C976.427 519.509 976.579 522.455 976.05 525.25C975.143 530.008 972.196 533.558 967.813 535.446C969.022 538.921 975.294 538.845 972.8 543.981C971.213 547.38 969.022 549.646 964.941 548.287C963.656 551.081 960.936 553.121 963.657 556.595C966.226 559.918 969.324 557.426 973.103 557.728C971.44 559.239 970.533 560.296 969.475 560.976C966.83 562.713 964.034 564.148 961.465 565.961C960.483 566.716 959.122 568.151 959.274 568.982C959.5 570.115 960.86 571.173 961.994 572.003C963.808 573.363 965.772 574.496 967.662 575.78C964.337 579.028 961.389 579.783 957.384 579.783C948.618 579.859 939.853 581.218 931.087 581.973C929.651 582.125 928.14 581.747 926.704 581.596C926.779 581.143 926.779 580.765 926.779 580.312C929.5 580.161 932.22 580.312 934.789 579.632C935.999 579.33 937.208 577.517 937.586 576.158C938.115 574.345 937.283 573.136 934.941 572.532C931.54 571.626 928.442 569.888 924.663 568.302C926.175 566.263 927.082 564.828 928.14 563.695C932.9 558.634 932.674 557.728 926.553 554.178C924.966 553.196 923.303 552.139 922.019 550.855C920.281 549.117 918.92 547.003 916.804 544.359C918.845 544.359 919.6 544.208 920.28 544.359C923.53 545.19 925.495 543.528 926.553 540.885C927.686 538.166 926.628 536.126 923.908 534.767C917.333 531.368 917.258 524.797 916.2 518.981C919.374 518.225 922.019 517.546 925.57 516.715C923.303 513.92 922.019 511.73 920.129 510.144C914.537 505.385 913.479 499.192 913.782 492.394C913.933 487.937 914.235 483.557 914.084 479.176C914.008 477.061 912.875 475.022 912.195 472.982C911.59 472.982 911.061 473.058 910.532 473.133C910.079 474.72 909.247 476.23 909.096 477.816C908.87 480.989 909.172 484.161 908.87 487.258C908.038 494.811 905.998 501.76 899.121 506.291C896.25 508.18 896.628 511.201 899.802 512.712C901.011 513.24 902.295 513.694 903.58 514.147C901.011 519.736 898.366 522.757 895.645 523.437C892.547 524.192 888.92 531.821 890.507 534.616C891.036 535.597 892.245 536.277 893.227 536.957C893.907 537.41 894.663 537.637 896.552 538.468C892.32 541.64 888.769 544.208 885.217 546.852C881.136 549.948 881.212 552.063 885.746 554.556C886.804 555.16 888.089 555.387 889.298 555.689C891.565 556.293 893.832 556.822 896.779 557.501C894.89 559.616 893.681 561.353 892.018 562.637C888.844 565.054 885.217 567.094 882.043 569.586C876.904 573.741 876.904 574.571 881.363 579.254C882.119 580.085 883.63 580.387 884.839 580.689C886.502 581.067 888.24 581.143 890.658 581.445C889.524 583.031 888.844 584.315 887.862 585.146C885.519 587.034 883.025 588.771 880.456 590.357C877.962 591.868 875.998 593.53 877.358 597.08C874.864 597.684 872.748 599.195 870.783 596.324C870.406 595.72 868.441 595.871 867.307 596.098C865.494 596.475 863.756 597.08 861.866 597.684C861.715 595.645 861.64 593.983 861.489 592.321C854.385 591.792 845.392 585.372 844.788 580.614C849.171 579.103 853.63 577.819 857.861 576.007C859.07 575.478 859.599 573.514 860.506 572.23C859.07 571.324 857.71 570.342 856.199 569.586C853.478 568.302 850.078 567.698 847.886 565.734C845.241 563.393 845.997 561.882 849.473 560.372C850.758 559.843 853.101 558.71 853.025 558.181C852.345 554.556 855.065 554.405 857.106 553.347C858.164 552.819 859.222 551.459 859.448 550.251C859.599 549.646 858.088 548.211 857.181 547.985C854.007 547.305 850.833 547.078 847.66 546.474C843.806 545.719 841.538 542.848 841.916 539.676C842.37 535.673 843.806 534.313 848.34 534.087C851.06 533.936 853.554 533.634 853.932 530.386C854.31 527.289 851.514 527.062 849.473 526.232C849.095 526.081 848.793 526.005 848.415 525.854C844.335 524.343 841.16 521.549 838.591 518.15C837.835 517.092 837.911 514.751 838.44 513.391C839.12 511.73 839.574 509.388 842.521 509.766C843.503 509.917 845.619 508.406 845.619 507.727C845.544 506.065 844.863 503.497 843.73 503.044C836.475 500.022 834.662 493.829 834.359 487.182C834.133 480.535 834.813 473.889 835.191 467.242C835.342 464.825 835.417 462.71 831.866 461.351C831.11 463.239 829.901 465.052 829.75 466.94C829.145 473.662 828.994 480.46 828.465 487.258C828.238 489.373 827.785 491.563 826.803 493.376C824.611 497.228 821.815 500.627 817.508 502.666C816.147 503.346 815.543 505.838 815.09 507.576C815.014 507.953 817.357 509.162 818.717 509.464C820.833 509.917 822.42 511.05 821.135 512.938C819.095 515.959 816.299 518.452 813.729 521.096C812.142 522.682 810.48 524.192 808.817 525.778C810.707 527.138 812.445 529.026 814.561 529.631C818.339 530.763 819.246 533.86 819.85 536.73C820.077 537.863 817.357 539.676 815.921 541.111C814.938 542.093 813.88 543.075 812.747 543.83C809.951 545.643 807.306 547.833 804.208 548.891C800.656 550.024 801.563 553.423 800.051 555.462C799.598 556.066 800.958 558.936 802.167 559.616C806.172 561.882 810.48 563.619 814.863 565.659C813.88 570.946 810.858 575.553 806.097 578.65C804.283 579.859 802.621 581.218 800.807 582.276C799.598 583.031 798.162 583.484 796.726 583.862C794.157 584.542 791.21 585.146 790.908 588.318C790.606 591.339 792.721 592.699 795.593 593.076C797.633 593.379 799.598 593.756 801.562 594.134L801.563 594.134C803.83 594.587 806.021 595.116 808.288 595.569C808.44 595.947 808.515 596.4 808.591 596.778C806.475 598.666 803.905 600.252 802.47 602.593C799.976 606.748 796.575 608.787 791.89 609.467C790.001 609.769 787.809 610.751 786.676 612.186C785.24 613.999 784.56 616.491 783.88 618.833C783.653 619.512 784.56 620.872 785.24 621.174C786.752 621.778 788.565 622.005 790.228 622.307C791.663 622.609 793.175 622.685 795.14 622.911C794.384 623.969 794.233 624.346 793.931 624.497C788.414 627.292 782.822 629.936 777.306 632.655C774.963 633.788 773.83 632.806 773.981 630.464C774.132 627.972 773.452 626.461 770.958 625.63C768.918 624.875 767.028 623.742 765.064 622.76C769.447 620.57 775.039 625.253 777.759 617.775C775.945 616.642 774.132 614.98 771.94 614.15C767.331 612.412 765.139 609.013 763.779 604.557C765.668 604.179 767.255 604.18 768.54 603.5C769.295 603.122 769.9 601.838 769.976 600.856C770.051 600.101 769.371 598.59 768.918 598.515C765.744 598.213 765.064 595.645 764.761 593.454C764.006 587.487 763.779 581.445 763.023 575.478C762.872 574.043 761.512 572.759 760.681 571.399C759.547 572.759 757.734 573.892 757.431 575.327C756.978 577.593 757.431 580.085 757.658 582.427C758.414 589.527 758.187 590.055 751.99 593.379C748.892 595.04 748.363 597.533 750.781 600.101C751.839 601.234 753.048 602.291 754.635 603.726C751.99 605.388 749.874 606.974 747.532 608.107C744.963 609.316 744.358 611.431 745.643 613.319C746.927 615.207 749.27 616.416 751.612 618.228C751.386 618.606 750.932 619.739 750.177 620.57C749.723 621.023 748.741 621.023 748.061 621.25C742.544 622.987 741.864 625.253 745.416 629.558C746.247 630.54 747.078 631.597 748.061 632.881C746.172 633.863 744.736 634.467 743.3 635.298C738.161 638.244 737.859 641.265 742.771 645.268C741.335 647.081 740.126 649.271 738.388 650.782C734.005 654.408 716.109 665.11 711.575 668.585Z" fill="#656565"/>
<path d="M674.307 596.341C675.559 596.572 679.08 598.698 682.957 598.666C686.834 598.634 695.064 601.54 707.457 607.166C714.984 610.198 724.857 617.677 726.457 619.666C728.457 622.152 732.457 625.166 731.457 627.166C730.657 628.766 725.32 627.695 724.002 627.71C702.55 621.835 680.827 616.874 659.191 611.652C630.605 604.754 601.788 599.107 572.529 595.695C566.038 594.99 559.609 594.356 553.123 593.584C549.486 593.101 545.953 592.159 542.296 591.941C538.108 591.682 533.95 591.892 529.808 591.904C519.726 591.854 509.618 592.135 499.572 591.621C488.53 591.029 477.68 592.254 466.699 592.601C447.418 593.171 428.655 596.518 409.912 600.467C409.095 600.671 408.41 600.884 407.654 601.159C401.074 603.318 394.478 605.675 387.836 607.762C382.222 609.529 376.566 610.958 370.906 612.454C369.338 612.866 367.642 613.201 366.033 613.276C363.412 613.473 362.352 611.654 363.789 609.496C364.474 608.415 365.547 607.497 366.661 606.916C374.397 602.778 382.521 599.671 391.144 597.872C408.528 594.217 425.805 590.221 443.128 586.494C447.884 585.463 452.675 584.834 457.461 584.272C464.204 583.461 470.916 583.049 477.658 582.238C488.109 580.982 498.525 579.322 508.955 578.331C514.942 577.795 521.06 578.138 527.128 578.276C537.001 578.443 546.858 578.81 556.72 579.11C560.852 579.231 565.056 579.291 569.458 579.367C567.005 574.836 570.342 573.16 572.979 571.028C572.117 570.093 571.367 569.434 570.826 568.657C569.316 566.604 569.221 564.393 571.158 562.675C574.25 559.844 576.041 556.579 576.233 552.388C576.368 549.794 577.407 547.605 580.743 546.797C581.115 548.027 581.946 549.36 581.731 550.412C580.715 554.873 583.987 557.464 585.803 560.743C586.512 561.933 587.016 564.042 586.407 564.996C585.031 567.226 585.684 568.278 587.445 569.684C589.206 571.089 590.394 572.984 588.998 575.479C587.366 578.423 587.942 579.603 591.328 579.867C598.3 580.409 605.292 580.686 612.278 581.029C613.744 581.077 615.225 580.925 616.829 580.916C616.554 580.16 616.58 579.828 616.401 579.548C614.224 575.773 614.612 575.069 618.914 573.868C622.735 572.83 624.949 570.131 625.76 565.721C624.034 565.587 622.486 565.734 621.051 565.288C620.009 564.94 619.163 563.806 618.285 563.07C619.164 562.07 620.034 560.335 620.902 560.336C626.393 560.163 627.474 555.707 630.281 552.253C629.296 552.043 628.974 551.885 628.642 551.859C626.098 551.928 623.806 551.349 623.43 548.449C623.054 545.549 626.297 545.935 627.54 544.563C629.513 542.38 631.451 539.793 632.127 537.108C633.286 532.525 633.469 527.599 634.045 522.77C637.205 524.218 637.965 525.612 637.789 528.736C637.659 531.263 637.325 533.841 637.598 536.332C638.07 540.575 640.416 543.896 644.138 545.854C642.838 548.824 637.333 548.329 639.173 553.012C640.335 556.107 642.105 558.247 645.783 557.332C646.721 559.875 648.972 561.853 646.344 564.719C643.859 567.464 641.308 565.062 637.967 565.069C639.325 566.51 640.049 567.501 640.932 568.171C643.137 569.878 645.496 571.33 647.629 573.098C648.441 573.829 649.538 575.183 649.348 575.902C649.071 576.882 647.804 577.718 646.751 578.371C645.065 579.441 643.261 580.302 641.514 581.301C644.213 584.382 647.438 586.892 650.957 587.166C658.654 587.832 666.657 595.078 674.307 596.341Z" fill="#656565"/>
</svg>
