<svg width="1500" height="900" viewBox="0 0 1500 900" fill="none" xmlns="http://www.w3.org/2000/svg">
<path d="M106.128 578.822C103.828 582.622 104.028 585.722 108.528 588.522C110.028 586.622 111.328 584.922 113.028 583.422C120.428 573.422 127.528 563.122 135.328 553.422C149.828 535.422 164.728 517.622 179.428 499.822C180.228 498.922 180.928 497.922 181.828 497.222C197.528 485.522 206.228 466.722 223.128 456.222C232.328 443.122 243.928 431.822 252.128 417.722C262.828 399.522 275.228 382.322 287.328 365.022C290.528 360.422 295.728 357.022 300.728 352.422C301.628 355.222 302.228 356.422 302.328 357.722C303.628 373.022 306.028 388.222 301.928 403.422C301.128 406.422 300.928 409.922 301.928 412.722C303.828 418.122 302.428 422.022 298.428 425.622C286.228 436.522 274.328 447.722 261.828 458.222C256.928 462.322 255.028 466.622 255.328 472.822C255.928 482.522 253.028 491.822 246.328 498.522C236.228 508.622 224.828 517.422 214.328 527.122C211.828 529.322 209.928 532.822 209.228 536.122C208.528 539.422 211.328 541.622 214.628 540.322C219.328 538.422 224.028 536.022 228.128 533.122C233.328 529.422 237.528 523.922 243.128 520.922C251.328 516.522 260.128 512.822 269.128 510.122C279.328 507.022 284.628 500.322 287.528 490.822C291.528 477.622 300.428 468.622 312.228 462.122C314.328 461.022 317.228 459.622 319.228 460.222C328.128 462.822 333.028 457.322 337.828 451.722C339.728 449.522 340.828 446.622 341.728 443.822C344.428 435.622 348.928 428.722 354.828 422.322C362.728 413.722 368.128 404.222 361.728 391.622C357.728 383.822 355.628 375.122 352.828 366.822C351.728 363.622 352.428 360.722 355.428 359.022C363.528 354.622 369.428 348.022 374.528 340.522C380.228 332.222 387.028 324.422 392.228 315.822C400.828 301.522 408.728 286.922 416.828 272.322C428.328 251.522 439.628 230.622 451.128 209.822C455.028 202.722 459.128 195.622 463.728 188.922C468.603 181.707 474.048 174.777 479.415 167.947L479.828 167.422C486.428 159.022 492.928 150.622 499.928 142.622C505.228 136.722 511.428 131.422 517.528 125.522C517.628 127.322 517.728 128.622 517.828 129.922C519.028 147.222 523.628 163.622 532.928 178.422C537.628 185.822 543.628 192.422 548.628 199.622C551.728 204.022 554.128 209.022 556.628 213.922C557.128 214.922 556.928 216.622 556.328 217.722C553.328 223.322 550.928 229.322 546.928 234.122C541.028 241.222 539.528 248.822 541.728 257.422C542.828 261.622 544.328 265.622 545.528 269.822C548.828 281.622 552.328 293.422 555.028 305.422C555.828 308.822 554.728 313.122 553.228 316.422C548.428 326.422 543.328 336.322 537.828 345.922C532.428 355.322 526.228 364.422 520.328 373.622C519.728 374.622 518.828 375.322 518.028 376.222C513.728 381.222 509.228 386.122 505.128 391.322C495.328 403.622 485.928 416.122 476.128 428.322C472.728 432.522 468.628 436.322 465.128 440.522C464.028 441.822 463.528 444.022 463.728 445.822C463.828 446.422 466.528 447.022 468.028 447.222C472.628 447.722 476.028 445.722 479.028 442.422C494.628 425.122 510.228 407.922 531.528 397.222C537.528 394.222 542.928 389.822 548.728 386.322C554.328 382.922 556.728 383.722 560.928 388.922C563.328 391.822 566.328 394.222 568.928 396.922C570.928 399.022 573.228 401.122 574.928 403.522C580.428 411.222 582.628 411.622 590.928 406.822C599.028 402.222 607.228 397.822 615.428 393.322C619.528 391.022 623.428 391.122 627.028 394.222C632.01 398.506 644.538 410.011 649.475 414.545L649.528 414.594C651.044 416.006 662.321 432.044 681.028 450.616C690.298 459.819 691.028 470.594 710.028 463.594C712.861 460.594 718.828 453.798 720.028 450.616C721.528 446.638 732.028 442.422 741.028 434.094C750.028 425.766 753.028 422.322 765.028 419.094C777.028 415.866 784.528 406.822 788.528 394.222C792.528 381.622 806.528 366.822 813.528 359.022C819.128 352.782 811.195 346.526 806.528 344.177C801.875 340.172 796.858 335.894 791.58 331.422C787.566 328.022 788.8 320.01 784.528 316.422C780.896 313.371 782.788 309.561 779.028 306.422C773.93 302.165 761.139 291.222 755.926 286.897C746.708 279.248 741.017 287.488 732.028 280.094C728.698 277.355 717.256 271.331 714.028 268.683C709.506 264.973 705.758 260.88 701.528 257.422C697.82 254.391 692.745 243.872 689.337 241.094C687.003 239.192 684.748 237.355 682.583 235.594C666.138 222.216 654.887 213.168 653.828 212.422C649.228 209.222 645.028 205.222 640.528 201.922C633.728 197.022 626.828 192.322 619.928 187.522C615.528 184.522 610.828 181.922 606.728 178.622C598.428 171.822 590.528 164.522 582.228 157.722C568.528 146.498 571.728 151.822 562.628 145.022C551.328 136.622 540.928 127.022 530.328 117.822C523.528 111.822 518.428 111.122 512.028 117.422C494.528 134.722 477.328 152.622 463.828 173.322C452.728 190.322 442.428 207.922 432.028 225.322C423.028 240.522 413.528 255.422 405.628 271.122C397.728 287.022 388.428 301.822 376.328 314.822C375.628 315.622 375.128 316.722 374.728 317.822C370.428 330.622 363.128 341.422 352.928 350.122C350.028 352.622 346.128 355.422 342.728 355.422C329.528 355.222 317.928 348.622 305.728 344.522C298.728 342.122 292.928 341.822 287.928 347.422C279.128 357.321 270.829 367.721 262.529 378.12L262.528 378.122C260.228 380.922 258.428 384.422 257.428 387.822C254.228 399.322 243.528 407.022 242.128 419.322C233.328 429.622 224.628 440.122 215.528 450.322C210.428 456.222 204.428 461.322 199.128 467.022C181.928 485.722 167.628 506.922 148.328 523.722C141.828 529.422 137.128 537.322 130.128 542.122C124.528 546.022 123.128 551.522 120.028 556.322C115.228 563.722 110.828 571.322 106.128 578.822Z" fill="#656565"/>
<path d="M1402.05 571.171C1404.6 572.913 1407.54 573.985 1409.02 575.996C1411.43 579.48 1409.69 582.295 1402.05 588.594C1385.17 583.769 1371.77 572.243 1355.03 566.748C1332.39 559.243 1313.9 543.83 1297.42 525.603C1290.46 517.83 1277.86 515.149 1267.55 510.726C1264.2 509.252 1260.05 509.252 1256.29 509.118C1232.31 508.85 1216.77 495.314 1204.18 476.684C1201.77 473.066 1198.29 470.117 1195.34 466.633C1192.39 463.014 1188.91 459.663 1187.03 455.509C1184.62 450.416 1180.87 448.941 1176.32 449.478C1162.12 451.22 1148.18 453.632 1137.06 464.086C1132.51 468.375 1125.95 466.365 1121.39 461.406C1114.16 453.632 1105.98 446.529 1098.35 439.024C1095.8 436.611 1093.66 433.529 1090.85 431.518C1088.43 429.776 1085.35 428.168 1082.54 428.302C1068.61 428.838 1056.42 433.529 1048.78 445.993C1039.27 461.54 1030.03 477.355 1021.05 493.303C1018.64 497.458 1018.1 502.685 1015.69 506.706C1014.22 508.984 1010.47 509.922 1007.79 511.397C1007.12 508.716 1005.64 505.901 1005.78 503.221C1005.91 494.241 1005.64 485.128 1007.12 476.416C1009.53 462.612 1006.05 448.942 1007.52 435.137C1008.86 422.271 1005.64 408.868 1006.71 395.868C1007.79 381.662 999.883 373.754 990.505 365.847C985.28 361.424 980.189 356.733 975.099 352.043C970.41 347.754 969.07 335.96 972.687 329.527C980.055 316.66 983.271 303.526 978.716 288.649C975.099 277.257 974.697 264.793 970.946 253.401C967.731 243.752 962.64 234.638 957.147 226.06C952.592 219.091 942.009 220.029 937.186 227.267C934.507 231.287 932.631 235.978 929.818 239.999C920.172 253.669 910.929 267.608 900.345 280.474C878.241 307.413 855.199 333.413 833.094 360.218C820.233 375.899 808.31 392.25 796.253 408.6C793.038 413.023 790.359 418.116 788.483 423.343C784.866 433.529 776.828 437.952 767.45 441.168C758.609 444.117 749.365 446.529 741.193 451.086C724.447 460.334 708.907 471.591 692.027 480.303C679.702 486.736 666.038 490.757 652.775 494.912C650.631 495.582 646.345 491.427 644.201 488.478C643.397 487.406 645.541 482.849 647.55 481.375C658.535 472.932 669.119 463.818 681.176 457.117C696.984 448.271 707.969 434.065 721.634 422.941C733.155 413.559 743.604 402.971 755.393 393.858C764.101 387.023 774.685 382.6 783.526 375.765C810.186 355.393 833.362 331.135 856.404 306.877C867.657 295.083 879.312 283.691 889.762 271.226C897.398 262.113 902.891 251.123 909.991 241.473C920.574 227.267 931.292 212.926 943.081 199.658C949.243 192.555 952.458 193.225 959.559 199.792C977.912 216.813 996.533 233.432 1011 254.071C1017.43 263.453 1023.46 273.371 1031.23 281.412C1037.26 287.711 1042.48 294.546 1050.25 299.639C1058.29 305 1066.33 308.753 1075.17 311.701C1077.18 312.372 1078.92 314.114 1080.53 315.588C1085.76 320.681 1091.11 325.64 1095.8 331.135C1099.96 336.094 1103.17 341.857 1107.32 346.816C1114.56 355.527 1124.47 359.28 1135.46 360.486C1139.48 360.888 1143.49 360.754 1147.51 360.486C1161.85 359.414 1173.37 363.435 1182.75 375.497C1199.09 396.404 1213.02 418.384 1224.14 442.374C1232.98 461.54 1248.66 474.272 1269.69 479.499C1272.64 480.303 1275.45 481.777 1278.4 482.715C1284.43 484.592 1290.59 486.2 1296.62 488.344C1304.92 491.293 1314.03 493.437 1321.13 498.262C1331.45 505.231 1340.43 514.345 1349.8 522.654C1351.28 523.995 1352.75 525.603 1353.42 527.479C1357.17 537.129 1365.75 542.088 1373.11 548.119C1382.89 556.026 1392.67 563.666 1402.05 571.171Z" fill="#656565"/>
<path d="M927.899 312.529C927.899 313.889 928.239 315.419 927.814 316.694C925.266 325.79 922.633 334.885 920 343.981C919.745 344.916 919.49 345.936 919.405 346.871C919.151 355.202 919.066 363.447 918.641 371.778C918.046 385.123 912.61 396.259 902.503 404.93C901.568 405.78 900.549 406.545 899.36 407.14C890.696 411.22 885.77 419.635 878.465 425.331C874.473 428.391 870.396 431.366 866.404 434.426C865.809 434.936 864.96 435.956 865.045 436.381C866.064 439.272 864.705 441.057 862.412 442.162C860.458 443.097 858.25 443.692 856.126 444.372C854.683 444.882 853.239 445.647 851.71 445.817C847.718 446.242 843.641 446.922 839.733 446.412C836.846 446.072 836.506 443.352 837.61 440.717C839.309 436.891 843.556 434.001 842.197 428.901C851.88 420.315 851.964 406.63 859.354 396.854C862.837 392.349 866.999 388.269 871.245 384.358C878.38 377.813 886.959 372.373 892.905 364.892C898.935 357.327 902.842 347.891 907.344 339.136C910.742 332.505 913.12 325.28 916.857 318.904C918.726 315.759 922.718 313.974 925.776 311.594C926.625 311.934 927.305 312.189 927.899 312.529Z" fill="#656565"/>
<path d="M492.628 220.322C491.528 222.422 491.028 223.522 490.328 224.422C478.728 241.022 475.328 260.522 471.228 279.722C468.628 292.022 461.428 300.322 448.928 302.722C446.128 303.222 443.328 303.722 440.528 304.222C429.728 306.022 424.328 313.822 418.628 322.122C415.028 327.222 408.728 330.622 403.328 334.222C402.428 334.822 399.628 333.322 398.228 332.122C397.728 331.722 398.528 329.122 399.428 328.022C407.028 317.122 414.928 306.522 422.328 295.622C432.128 281.322 441.528 266.822 451.128 252.522C452.128 251.022 453.328 249.522 454.628 248.322C464.128 239.222 473.628 230.122 483.128 221.022C484.228 220.022 485.528 218.422 486.628 218.522C488.628 218.422 490.528 219.522 492.628 220.322Z" fill="#656565"/>
<path d="M497.878 541.594C491.278 537.294 491.778 536.594 497.178 530.694C507.178 519.794 515.878 507.994 520.878 493.694C522.578 488.994 525.578 484.594 528.778 480.794C531.078 478.094 534.478 476.094 537.878 474.894C544.278 472.494 548.478 467.794 553.078 463.194C558.578 457.694 564.578 452.694 570.578 447.694C571.778 446.694 574.078 446.994 575.978 446.594C576.178 448.494 576.978 450.694 576.278 452.194C572.878 459.494 568.878 466.594 565.278 473.794C563.678 477.094 562.778 480.894 561.178 484.194C558.778 489.194 556.078 493.994 553.278 498.794C552.078 500.694 550.178 502.194 548.778 503.994C537.878 517.594 526.778 530.594 508.978 535.694C505.078 536.794 501.678 539.494 497.878 541.594Z" fill="#656565"/>
<path d="M500.328 280.522C500.528 282.422 501.428 284.522 500.728 286.022C494.428 301.422 486.128 315.022 471.228 324.322C462.028 330.122 453.428 337.722 447.928 347.822C444.628 353.822 441.328 359.922 437.628 365.722C436.528 367.522 434.328 368.822 432.428 370.022C427.928 372.822 423.328 375.422 418.728 378.122C417.428 378.922 416.228 379.822 414.928 380.522C408.728 383.722 402.628 386.922 396.328 389.822C394.728 390.522 391.128 390.722 390.928 390.322C390.128 388.022 389.228 385.022 390.128 383.122C391.528 380.022 394.028 377.322 396.528 374.922C403.228 368.522 410.328 362.522 417.028 356.022C419.928 353.222 422.828 349.922 424.528 346.222C428.728 336.922 435.128 331.122 444.428 326.522C464.728 316.522 482.328 302.822 495.728 284.122C496.628 282.822 497.728 281.622 498.828 280.422C499.328 280.422 499.828 280.422 500.328 280.522Z" fill="#656565"/>
<path d="M736.079 753.047C736.588 753.453 736.791 754.063 737.299 754.774C735.164 758.532 732.623 757.516 730.183 756.094C720.525 751.828 716.443 750.259 706.684 746.094C697.684 740.594 683.34 738.635 670.183 733.094C653.986 726.274 635.787 721.608 618.683 716.367C593.775 711.186 518.873 698.457 493.864 693.683C460.518 687.284 426.868 682.307 393.319 676.923C348.994 669.813 304.465 664.632 259.53 662.905C249.567 662.601 239.705 662.398 229.742 661.991C224.15 661.687 218.66 660.671 213.068 660.772C206.663 660.874 200.36 661.687 194.057 662.194C178.706 663.312 163.355 664.937 148.004 665.343C137.73 666.26 109.983 671.232 101.183 674.032C90.1827 677.532 83.6827 671.655 94.6827 665.343C103.483 660.294 122.326 655.375 129.683 652.443C145.441 649.294 144.954 646.755 160.712 644.012C169.76 642.489 179.113 642.286 188.364 641.778C203.41 640.864 218.457 640.254 233.503 639.543C239.807 639.238 246.212 638.832 252.922 638.426C248.652 631.823 253.532 628.877 257.293 625.322C255.87 624.002 254.65 623.088 253.735 621.97C251.193 619.025 250.787 615.673 253.532 612.829C257.903 608.156 260.241 602.976 260.038 596.576C259.936 592.615 261.258 589.161 266.24 587.536C266.951 589.364 268.374 591.294 268.171 592.92C267.155 599.827 272.441 603.382 275.593 608.156C276.813 609.883 277.829 613.032 277.016 614.555C275.186 618.11 276.304 619.634 279.151 621.564C281.997 623.494 284.031 626.237 282.201 630.198C280.066 634.87 281.082 636.597 286.267 636.597C296.942 636.597 307.617 636.191 318.291 635.886C320.528 635.785 322.764 635.378 325.204 635.175C324.696 634.058 324.696 633.55 324.391 633.144C320.63 627.659 321.138 626.541 327.543 624.205C333.236 622.173 336.286 617.806 336.997 611C334.354 611 332.016 611.406 329.779 610.899C328.153 610.492 326.729 608.867 325.306 607.851C326.526 606.226 327.644 603.483 328.966 603.382C337.302 602.468 338.421 595.561 342.284 589.974C340.759 589.771 340.251 589.568 339.742 589.568C335.879 589.974 332.321 589.364 331.406 584.997C330.491 580.629 335.472 580.832 337.201 578.597C339.946 575.042 342.589 570.878 343.3 566.713C344.52 559.603 344.215 552.086 344.52 544.671C349.502 546.499 350.824 548.531 350.925 553.305C351.027 557.165 350.823 561.126 351.535 564.885C352.755 571.284 356.72 576.058 362.616 578.597C360.99 583.27 352.552 583.168 355.907 590.075C358.042 594.646 360.99 597.694 366.48 595.865C368.208 599.624 371.868 602.366 368.208 607.039C364.751 611.508 360.583 608.156 355.5 608.562C357.737 610.594 358.957 612.016 360.38 612.93C363.938 615.266 367.7 617.196 371.156 619.634C372.478 620.65 374.308 622.58 374.104 623.697C373.799 625.221 371.97 626.643 370.445 627.76C368.005 629.589 365.361 631.112 362.82 632.839C367.293 637.207 370.796 641.778 376.184 641.778C387.977 641.879 400.232 640.152 412.025 641.168C413.956 641.371 415.99 640.864 417.921 640.66C417.82 640.051 417.82 639.543 417.82 638.934C414.16 638.73 410.5 638.933 407.043 638.019C405.417 637.613 403.79 635.175 403.282 633.347C402.57 630.909 403.689 629.284 406.84 628.471C411.415 627.252 415.583 624.916 420.666 622.783C418.633 620.04 417.413 618.11 415.99 616.587C409.585 609.781 409.89 608.562 418.125 603.788C420.26 602.468 422.496 601.046 424.224 599.319C426.563 596.983 428.393 594.139 431.239 590.583C428.494 590.583 427.478 590.38 426.563 590.583C422.191 591.701 419.548 589.466 418.125 585.911C416.6 582.254 418.023 579.512 421.683 577.683C430.528 573.112 430.629 564.275 432.053 556.454C427.783 555.438 424.224 554.524 419.446 553.407C422.496 549.648 424.224 546.702 426.766 544.569C434.289 538.17 435.712 529.841 435.306 520.699C435.102 514.706 434.696 508.815 434.899 502.923C435.001 500.079 436.526 497.337 437.441 494.594C438.254 494.594 438.966 494.696 439.677 494.797C440.287 496.93 441.406 498.962 441.609 501.095C441.914 505.361 441.507 509.627 441.914 513.792C443.032 523.949 445.777 533.294 455.029 539.389C458.892 541.928 458.383 545.991 454.114 548.023C452.487 548.734 450.759 549.343 449.03 549.953C452.487 557.47 456.045 561.533 459.705 562.447C463.873 563.463 468.753 573.722 466.618 577.48C465.907 578.8 464.28 579.715 462.958 580.629C462.043 581.238 461.027 581.543 458.485 582.66C464.178 586.927 468.957 590.38 473.735 593.935C479.225 598.1 479.123 600.944 473.023 604.296C471.6 605.109 469.871 605.413 468.245 605.82C465.195 606.632 462.145 607.343 458.18 608.258C460.722 611.102 462.348 613.438 464.585 615.165C468.855 618.415 473.735 621.158 478.005 624.51C484.918 630.096 484.918 631.214 478.919 637.511C477.903 638.629 475.87 639.035 474.243 639.441C472.006 639.949 469.668 640.051 466.415 640.457C467.94 642.59 468.855 644.317 470.176 645.434C473.328 647.974 476.683 650.31 480.139 652.443C483.494 654.475 486.138 656.709 484.308 661.483C493.201 662.876 506.193 666.533 521.684 671.682C532.342 675.225 543.681 675.298 556.183 680.001C566.811 683.999 586.418 685.594 597.683 690.094C618.135 698.264 627.107 700.206 646.683 708.594C655.527 712.383 663.586 712.807 671.683 716.367C678.552 719.386 685.087 722.291 691.183 725.031C705.757 731.582 715.815 739.686 723.882 743.631C729.779 748.507 729.98 748.374 736.079 753.047Z" fill="#656565"/>
<path d="M1064.37 506.594C1064.04 509.182 1063.66 511.447 1063.59 513.647C1063.46 515.976 1063.59 518.306 1063.66 520.57C1063.72 521.67 1063.92 522.77 1064.04 523.806C1063.46 524.841 1062.94 526.135 1062.17 527.17C1060.8 529.047 1059.12 530.664 1057.76 532.541C1057.05 533.511 1056.59 534.741 1056.01 535.776C1057.37 536.359 1058.67 537.07 1060.09 537.458C1060.74 537.653 1061.58 537.07 1062.3 537.135C1063.33 537.329 1064.95 537.653 1065.08 538.235C1065.47 539.658 1065.73 541.729 1064.95 542.7C1063.01 545.094 1060.55 547.035 1058.21 549.105C1057.5 549.753 1056.66 550.27 1055.75 550.594C1052.25 552.017 1051.67 554.217 1054.45 556.805C1056.53 558.747 1059.83 559.264 1060.8 562.564C1060.93 563.017 1062.36 563.017 1063.33 563.276C1063.14 566.641 1061.13 568.97 1058.54 570.782C1055.69 572.723 1052.57 574.341 1049.79 576.282C1048.95 576.864 1048.04 578.546 1048.3 579.258C1048.69 580.229 1050.11 581.199 1051.28 581.458C1053.22 581.911 1055.3 581.782 1056.59 581.846C1058.28 583.335 1059.44 584.37 1060.87 585.664C1059.83 592.523 1054.84 597.246 1046.94 598.411C1044.99 598.735 1042.85 598.735 1042.79 601.387C1042.72 604.752 1044.28 606.435 1047.26 606.887C1049.59 607.276 1051.99 607.599 1054.19 608.376C1056.14 609.023 1056.98 610.64 1055.23 612.323C1053.22 614.199 1051.08 615.946 1048.82 617.434C1046.03 619.246 1043.05 620.67 1040.33 622.158C1041.1 623.517 1042.4 624.746 1042.27 625.846C1041.82 629.534 1044.02 630.375 1046.81 630.634C1050.89 631.023 1054.97 631.217 1059.31 631.476C1058.73 631.864 1058.08 632.317 1057.31 632.77C1053.48 634.97 1049.59 637.105 1045.77 639.305C1045.12 639.693 1044.09 640.47 1044.22 640.793C1045.38 644.869 1042.66 644.158 1040.26 644.287C1039.23 644.352 1038.25 645.258 1037.22 645.84C1039.55 649.658 1039.68 649.787 1049.01 651.728C1045.96 653.475 1044.02 656.387 1040.26 657.422C1037.15 658.264 1034.62 661.111 1031.58 662.534C1028.08 664.216 1024.32 665.446 1020.63 666.546C1019.91 666.74 1018.29 665.575 1017.97 664.734C1017.65 663.893 1018.23 662.469 1018.88 661.628C1019.59 660.722 1020.95 660.464 1021.79 659.622C1023.54 657.811 1025.55 655.999 1026.59 653.799C1028.08 650.434 1027.37 649.658 1023.8 648.752C1022.9 648.493 1021.79 648.299 1021.08 647.717C1017.13 644.417 1013.24 641.052 1008.7 637.17C1013.17 636.522 1015.38 634.517 1016.8 631.346C1017.19 630.57 1018.29 630.117 1018.81 629.405C1019.46 628.434 1020.37 627.27 1020.3 626.234C1020.24 625.458 1018.88 624.358 1017.97 624.164C1010.06 622.676 1006.95 615.429 1001.25 611.417C1001.38 611.093 1001.45 610.834 1001.58 610.511C1004.36 609.929 1007.15 609.346 1009.93 608.764C1013.76 607.987 1015.12 606.564 1015.12 603.329C1015.12 599.77 1012.46 599.252 1009.87 598.864C1002.68 597.764 998.4 593.558 996.585 587.476C998.983 585.793 1001.38 584.564 1003.07 582.817C1005.79 579.97 1005.07 576.282 1001.32 575.117C991.66 572.141 990.235 564.829 990.235 556.288C990.235 550.658 990.17 545.094 989.716 539.464C989.587 537.976 988.161 536.553 987.319 535.129C986.8 536.747 985.569 538.429 985.893 539.917C987.059 546.129 985.051 551.888 983.819 557.776C982.847 562.564 980.903 567.158 979.607 571.882C978.765 574.858 977.793 577.511 975.006 579.388C974.229 579.905 973.71 581.717 973.969 582.688C974.164 583.464 975.589 584.111 976.626 584.499C977.469 584.823 978.506 584.693 980.126 584.758C978.765 585.793 977.793 586.441 976.691 587.282C976.756 587.67 976.821 588.252 977.015 588.705C979.413 594.205 979.348 595.24 975.071 599.446C972.673 601.776 970.729 604.493 966.647 604.817C965.156 604.946 963.536 609.152 963.018 611.74C962.564 613.94 965.221 614.005 966.906 614.652C970.146 615.946 973.256 617.758 976.367 619.311C974.488 622.676 970.47 624.164 967.619 623.064C966.258 622.546 964.638 622.352 963.277 622.74C962.24 622.999 960.814 624.552 960.944 625.328C961.138 626.881 962.175 628.305 963.018 629.728C963.536 630.699 964.703 631.54 964.832 632.511C965.091 635.164 966.517 636.07 968.915 636.07C969.563 636.07 970.34 635.746 970.794 636.005C972.09 636.781 973.645 637.493 974.229 638.722C974.553 639.305 973.386 641.311 972.414 641.893C968.591 644.287 964.443 646.228 960.62 648.622C959.259 649.464 957.186 651.405 957.445 652.181C958.158 654.252 959.583 656.646 962.694 655.093C964.767 661.24 970.405 657.164 973.84 659.364C974.034 663.181 972.284 665.963 968.785 666.869C965.48 667.711 962.111 668.228 958.741 668.616C955.565 668.94 953.686 670.622 954.205 673.599C954.399 674.699 955.436 676.058 956.408 676.51C958.935 677.74 960.555 679.487 961.462 682.528C960.102 682.916 958.87 683.24 957.056 683.757C958.546 680.005 956.667 678.969 954.14 677.934C949.215 675.863 945.845 671.916 944.549 667.452C946.299 667.128 948.113 666.934 949.798 666.416C952.131 665.769 953.427 664.087 953.427 661.628C953.427 659.428 952.261 658.134 950.057 657.487C946.169 656.452 944.16 653.411 942.799 650.434C945.067 649.334 947.271 648.428 949.28 647.199C949.928 646.811 950.381 644.805 950.057 644.546C947.919 642.67 945.715 640.47 943.188 639.628C941.05 638.917 939.624 638.205 938.393 636.393C935.412 632.058 933.921 627.399 934.44 622.093C934.699 619.44 934.44 616.723 934.116 614.005C934.051 613.229 932.949 612.517 932.301 611.805C931.653 612.646 930.94 613.423 930.357 614.264C930.228 614.458 930.357 614.911 930.357 615.234C929.968 621.381 929.58 627.464 928.413 633.675C927.312 639.758 924.46 643.122 920.313 646.487C920.248 646.552 920.119 646.617 920.054 646.681C918.045 647.781 917.591 649.269 918.952 651.146C920.248 652.958 921.739 652.699 923.488 651.793C924.719 651.146 926.145 650.758 927.571 650.24C928.219 656.646 924.784 662.146 919.276 664.022C917.526 664.605 915.906 665.381 916.49 667.646C916.943 669.393 917.721 670.493 920.183 670.105C923.747 669.587 926.016 673.146 924.136 676.057C922.775 678.063 920.572 679.552 918.563 680.975C916.49 682.463 913.833 683.24 911.953 684.922C910.917 685.828 910.463 687.963 910.657 689.452C910.722 690.228 912.601 691.328 913.703 691.457C915.842 691.716 918.045 691.328 920.702 691.263C920.378 692.299 920.313 693.916 919.535 694.693C917.008 697.087 914.416 699.546 911.5 701.357C908.713 703.104 905.408 704.075 902.363 705.434C893.096 709.51 883.829 713.522 874.627 717.728C866.851 721.222 859.269 725.04 851.493 728.534C844.624 731.575 837.755 734.681 830.691 737.204C818.055 741.734 805.224 745.745 792.458 750.016C791.421 750.339 790.449 750.728 789.412 751.051C776.97 755.322 741.152 767.5 728.516 771.188C720.221 773.647 711.473 774.682 702.984 776.365C701.817 776.623 700.586 776.688 699.549 777.206C693.004 780.376 686.07 780.635 679.007 780.894C677.452 780.959 675.054 780.376 675.184 783.094C675.313 785.488 677.128 786.006 679.396 786.006C694.884 786.265 710.242 785.423 725.276 781.671C725.665 781.541 726.118 781.476 726.572 781.476C740.699 780.829 777.683 769.557 791.227 765.933C805.872 761.986 820.647 758.233 835.227 754.092C841.772 752.216 848.058 749.563 854.409 747.298C860.63 745.098 866.851 743.092 873.007 740.763C881.107 737.786 889.208 734.81 897.114 731.445C907.547 727.045 917.786 722.192 928.154 717.663C933.079 715.528 938.198 713.781 943.188 711.71C953.038 707.699 962.759 703.428 972.673 699.481C1001.58 688.093 1031.06 678.581 1061.26 671.399C1065.41 670.428 1069.81 670.299 1074.09 669.522C1087.44 666.999 1101.11 665.446 1114.01 661.499C1129.04 656.905 1144.21 657.422 1159.5 656.905C1169.74 656.581 1179.98 655.805 1190.22 655.74C1205.18 655.611 1220.02 657.746 1234.8 660.269C1243.81 661.758 1252.88 663.116 1261.89 664.605C1263.51 664.863 1265.06 665.187 1266.62 665.705C1287.48 672.693 1308.41 679.552 1329.15 686.734C1334.92 688.74 1340.43 691.716 1346.06 694.11C1348.79 695.275 1351.57 696.051 1354.68 693.463C1353.78 692.557 1353.06 691.457 1352.09 690.875C1346.39 687.64 1340.88 684.081 1334.85 681.493C1324.1 676.834 1314.18 670.428 1302.58 667.387C1287.16 663.375 1272 658.199 1256.64 653.864C1250.87 652.246 1244.91 651.405 1239.01 650.24C1233.31 649.075 1227.61 647.781 1221.84 646.875C1213.16 645.581 1204.41 644.352 1195.66 643.575C1189.76 643.058 1183.8 643.64 1177.9 643.252C1173.43 642.993 1169.02 642.022 1164.49 641.57C1162.09 641.311 1159.63 641.505 1156.65 641.505C1158.27 636.781 1161.51 638.334 1164.1 638.205C1166.63 634.322 1166.43 633.934 1162.41 631.734C1159.37 630.052 1156.45 628.305 1153.6 626.299C1152.69 625.652 1152.18 624.228 1151.98 623.129C1151.92 622.74 1153.6 622.223 1154.25 621.576C1156.52 619.376 1158.85 617.24 1160.79 614.781C1161.7 613.617 1159.37 610.899 1157.88 610.317C1154.83 609.023 1151.85 607.405 1148.09 605.593C1150.04 604.429 1151.14 603.782 1152.18 603.135C1155.35 600.999 1155.29 598.864 1152.31 596.664C1147.45 592.976 1144.59 588.123 1144.27 581.846C1144.14 579.517 1143.69 577.188 1143.17 574.858C1142.97 574.082 1142.13 573.564 1141.55 572.917C1141.03 573.694 1140.12 574.47 1140.06 575.311C1139.86 578.094 1140.19 580.941 1139.99 583.723C1139.67 588.77 1137.79 593.235 1133.9 596.47C1129.24 600.352 1129.24 601.776 1134.23 605.335C1135.91 606.564 1136.75 608.311 1135.33 610.058C1133.97 611.74 1132.15 613.164 1130.4 614.523C1129.43 615.299 1127.88 615.493 1127.03 616.334C1126.19 617.176 1125.93 618.599 1125.41 619.764C1126.58 620.281 1127.75 621.187 1128.91 621.187C1130.47 621.187 1131.76 620.605 1132.48 622.74C1133.06 624.617 1133.71 626.17 1131.5 627.399C1128.39 629.081 1125.28 630.699 1122.37 632.64C1121.27 633.352 1120.75 634.97 1119.9 636.134C1121.39 636.975 1123.01 638.658 1124.44 638.464C1127.23 638.14 1128.98 639.24 1130.99 641.634C1128.65 642.346 1126.71 643.122 1124.7 643.511C1121.52 644.093 1118.28 644.417 1115.04 644.74C1113.23 644.934 1111.09 645.97 1110.18 643.187C1110.05 642.864 1109.21 642.734 1108.76 642.734C1098.78 642.152 1092.23 636.07 1086.14 628.628C1089.25 626.17 1091.97 623.517 1096.45 624.293C1097.68 624.487 1099.56 624.293 1100.33 623.517C1101.63 622.287 1102.73 620.411 1102.86 618.664C1102.93 618.017 1100.27 616.27 1098.91 616.399C1092.95 616.787 1088.28 614.005 1083.74 610.834C1082.51 609.993 1081.74 608.57 1081.35 608.117C1083.87 606.046 1085.62 604.493 1087.57 603.199C1088.93 602.229 1090.48 601.517 1092.04 600.87C1092.88 600.482 1094.18 600.74 1094.76 600.158C1095.86 599.187 1096.58 597.764 1097.42 596.535C1096.06 595.823 1094.83 594.852 1093.4 594.464C1087.37 592.976 1080.83 592.523 1077.52 585.858C1079.47 585.146 1081.41 584.629 1083.1 583.658C1084.85 582.623 1086.21 581.07 1083.29 578.935C1087.44 577.641 1086.79 574.276 1087.05 571.429C1087.11 570.652 1086.14 569.488 1085.36 569.035C1083.55 568.064 1081.61 567.417 1079.66 566.835C1076.75 565.929 1074.93 564.117 1073.64 561.076C1078.56 560.623 1081.41 558.229 1082.32 553.376C1082.71 551.176 1082.25 549.947 1080.25 549.041C1075.45 546.776 1072.6 542.7 1069.55 537.976C1071.76 538.3 1073.31 538.688 1074.87 538.623C1075.9 538.623 1077.65 538.041 1077.72 537.523C1077.91 536.423 1077.46 534.935 1076.75 534.094C1075.51 532.67 1073.51 531.829 1072.4 530.276C1071.24 528.659 1070.4 526.588 1070.2 524.647C1069.75 520.506 1069.94 516.3 1069.68 512.159C1069.16 509.57 1067.93 507.759 1064.37 506.594Z" fill="#656565"/>
</svg>
